# https://github.com/mikedh/trimesh

o link5.STL
v 0.05788701 0.02025000 -0.01035999
v 0.05688699 0.02025000 -0.01136001
v 0.05688699 0.02225000 -0.01136001
v 0.05788701 0.02225000 -0.01035999
v 0.00000000 0.02225000 -0.01136001
v 0.00092346 0.02225000 -0.00404595
v 0.00258748 0.02225000 -0.00324459
v 0.00373902 0.02225000 -0.00180061
v 0.00000000 0.02025000 -0.01136001
v 0.04784169 0.02025000 0.00199999
v 0.00414999 0.02025000 0.00000001
v 0.04899641 0.02025000 0.00399999
v 0.00373902 0.02025000 -0.00180061
v 0.00258748 0.02025000 -0.00324459
v 0.00000000 -0.02025000 -0.01136001
v 0.04553230 -0.02025000 0.00199999
v 0.05688699 -0.02025000 -0.01136001
v 0.04784169 -0.02025000 0.00199999
v 0.05788701 -0.02025000 -0.01035999
v 0.05788701 -0.02225000 -0.01035999
v 0.05688699 -0.02225000 -0.01136001
v 0.00000000 -0.02225000 -0.01136001
v 0.00258748 -0.02225000 -0.00324459
v 0.00414999 -0.02225000 0.00000001
v 0.00373902 -0.02225000 -0.00180061
v -0.00296554 0.02225000 -0.01096611
v -0.00092347 0.02225000 -0.00404595
v -0.00296554 0.02025000 -0.01096611
v 0.00092346 0.02025000 -0.00404595
v -0.00092347 -0.02025000 -0.00404595
v 0.00092346 -0.02025000 -0.00404595
v -0.00296554 -0.02025000 -0.01096611
v -0.00296554 -0.02225000 -0.01096611
v 0.00092346 -0.02225000 -0.00404595
v 0.05768700 0.01425000 -0.01024999
v 0.05768700 0.00760476 -0.00552519
v 0.05768700 0.01325000 -0.01125001
v 0.05768700 0.00552518 -0.00760476
v 0.05768700 0.00290476 -0.00893994
v 0.05768700 -0.00000000 -0.00940000
v 0.05768700 -0.01325000 -0.01125001
v 0.02368699 -0.01325000 -0.01125001
v 0.02368699 0.01325000 -0.01125001
v 0.05768700 -0.00290476 -0.00893994
v 0.05768700 -0.00552518 -0.00760476
v 0.05768700 -0.01425000 -0.01024999
v 0.02368699 -0.01425000 -0.01024999
v 0.02368699 0.01425000 -0.01024999
v -0.00572541 0.02225000 -0.00981169
v -0.00572541 0.02025000 -0.00981169
v -0.00092347 0.02025000 -0.00404595
v -0.00572541 -0.02025000 -0.00981169
v -0.00572541 -0.02225000 -0.00981169
v -0.00092347 -0.02225000 -0.00404595
v 0.00414999 0.02225000 0.00000001
v 0.05788701 0.02225000 0.03295000
v 0.05788701 0.02025000 0.03295000
v 0.04899641 -0.02025000 0.00399999
v 0.05788701 -0.02025000 0.03295000
v 0.05788701 -0.02225000 0.03295000
v 0.00373902 -0.02225000 0.00180061
v 0.05768700 0.01425000 0.03425001
v 0.05768700 0.00940000 0.00000001
v 0.05768700 0.00893993 -0.00290476
v 0.04553230 0.01425000 0.00199999
v 0.04784169 0.01425000 0.02600001
v 0.04899641 0.01425000 0.00399999
v 0.04784169 0.01425000 0.00199999
v 0.05768700 -0.00760476 -0.00552519
v 0.05768700 -0.00940000 0.00000001
v 0.05768700 -0.01425000 0.03425001
v 0.05768700 -0.00893993 -0.00290476
v 0.04899641 -0.01425000 0.00399999
v 0.04784169 -0.01425000 0.00199999
v 0.04437758 0.01425000 0.00399999
v 0.03353228 0.01425000 0.02600001
v 0.03237759 0.01425000 0.02800001
v 0.02368699 0.01425000 0.03425001
v 0.04553230 -0.01425000 0.00199999
v 0.04437758 -0.01425000 0.00399999
v 0.03353228 -0.01425000 0.02600001
v 0.02368699 -0.01425000 0.03425001
v -0.00808823 0.02225000 -0.00797685
v -0.00258748 0.02225000 -0.00324459
v -0.00808823 0.02025000 -0.00797685
v -0.00258748 0.02025000 -0.00324459
v -0.00258748 -0.02025000 -0.00324459
v -0.00808823 -0.02025000 -0.00797685
v -0.00808823 -0.02225000 -0.00797685
v -0.00258748 -0.02225000 -0.00324459
v 0.06138699 0.00290476 -0.00893994
v 0.06138699 -0.00000000 -0.00940000
v 0.06138699 -0.00290476 -0.00893994
v 0.06138699 0.00290476 0.00893994
v 0.06138699 0.00552518 -0.00760476
v 0.06138699 -0.00552518 -0.00760476
v 0.06138699 -0.00000000 0.00939999
v 0.06138699 -0.00290476 0.00893994
v 0.06138699 -0.00552518 0.00760476
v -0.00989014 0.02225000 -0.00558882
v -0.00373903 0.02225000 -0.00180061
v -0.00989014 0.02025000 -0.00558882
v -0.00373903 -0.02025000 -0.00180061
v -0.00989014 -0.02025000 -0.00558882
v -0.00989014 -0.02225000 -0.00558882
v 0.06138699 0.00760476 -0.00552519
v 0.06138699 0.00760476 0.00552519
v 0.06138699 0.00552518 0.00760476
v 0.06138699 -0.00760476 -0.00552519
v -0.01100616 0.02225000 -0.00281321
v -0.01100616 0.02025000 -0.00281321
v -0.00373903 0.02025000 -0.00180061
v -0.01100616 -0.02025000 -0.00281321
v -0.01100616 -0.02225000 -0.00281321
v -0.00373903 -0.02225000 -0.00180061
v 0.06138699 0.00893993 -0.00290476
v 0.06138699 0.00940000 0.00000001
v 0.06138699 0.00893993 0.00290476
v 0.06138699 -0.00893993 -0.00290476
v 0.06138699 -0.00940000 0.00000001
v 0.06138699 -0.00893993 0.00290476
v 0.06138699 -0.00760476 0.00552519
v 0.04437758 -0.02025000 0.00399999
v 0.00258748 -0.02025000 -0.00324459
v 0.00373902 -0.02025000 -0.00180061
v -0.01136000 0.02225000 0.00000001
v -0.00415000 0.02225000 0.00000001
v -0.00415000 0.02025000 0.00000001
v -0.01136000 0.02025000 0.00000001
v -0.01136000 -0.02025000 0.00000001
v -0.00415000 -0.02025000 0.00000001
v -0.00415000 -0.02225000 0.00000001
v -0.01136000 -0.02225000 0.00000001
v 0.00414999 -0.02025000 0.00000001
v 0.05768700 0.00893993 0.00290476
v 0.05768700 -0.00893993 0.00290476
v 0.00373902 0.02225000 0.00180061
v 0.04553230 0.02025000 0.00199999
v 0.00373902 0.02025000 0.00180061
v 0.00373902 -0.02025000 0.00180061
v -0.01135891 0.02225000 0.00015752
v -0.01092392 0.02225000 0.00311731
v -0.00373903 0.02225000 0.00180061
v -0.00373903 0.02025000 0.00180061
v -0.01092392 0.02025000 0.00311731
v -0.01135891 0.02025000 0.00015752
v -0.01135891 -0.02025000 0.00015752
v -0.01092392 -0.02025000 0.00311731
v -0.00373903 -0.02025000 0.00180061
v -0.00373903 -0.02225000 0.00180061
v -0.01092392 -0.02225000 0.00311731
v -0.01135891 -0.02225000 0.00015752
v 0.00258748 0.02225000 0.00324459
v 0.00258748 0.02025000 0.00324459
v 0.00258748 -0.02025000 0.00324459
v 0.03353228 -0.02025000 0.02600001
v 0.01806010 -0.02225000 0.02486233
v 0.00258748 -0.02225000 0.00324459
v -0.00973135 0.02225000 0.00586091
v -0.00258748 0.02225000 0.00324459
v -0.00258748 0.02025000 0.00324459
v -0.00786392 0.02025000 0.00819807
v -0.00973135 0.02025000 0.00586091
v -0.00973135 -0.02025000 0.00586091
v -0.00258748 -0.02025000 0.00324459
v -0.00258748 -0.02225000 0.00324459
v -0.00786392 -0.02225000 0.00819807
v -0.00973135 -0.02225000 0.00586091
v 0.04437758 0.02025000 0.00399999
v 0.00092346 0.02025000 0.00404595
v 0.05768700 0.00760476 0.00552519
v 0.05768700 -0.00760476 0.00552519
v 0.01099189 0.02225000 0.01759590
v 0.01478203 0.02225000 0.02098008
v 0.01806010 0.02225000 0.02486233
v 0.00092346 0.02225000 0.00404595
v 0.00218365 0.02225000 0.01257832
v 0.00676458 0.02225000 0.01477675
v 0.00092346 -0.02025000 0.00404595
v 0.00218365 -0.02025000 0.01257832
v 0.00676458 -0.02025000 0.01477675
v 0.01099189 -0.02025000 0.01759590
v 0.01806010 -0.02025000 0.02486233
v 0.01478203 -0.02025000 0.02098008
v 0.00676458 -0.02225000 0.01477675
v 0.00092346 -0.02225000 0.00404595
v 0.01478203 -0.02225000 0.02098008
v 0.01099189 -0.02225000 0.01759590
v -0.00786392 0.02225000 0.00819807
v -0.00545114 0.02225000 0.00996669
v -0.00092347 0.02225000 0.00404595
v -0.00092347 0.02025000 0.00404595
v -0.00545114 0.02025000 0.00996669
v -0.00786392 -0.02025000 0.00819807
v -0.00545114 -0.02025000 0.00996669
v -0.00092347 -0.02025000 0.00404595
v -0.00092347 -0.02225000 0.00404595
v -0.00545114 -0.02225000 0.00996669
v 0.04784169 0.02025000 0.00600000
v 0.04784169 0.01425000 0.00600000
v 0.04784169 -0.01425000 0.00600000
v 0.04784169 -0.02025000 0.00600000
v 0.01478203 0.02025000 0.02098008
v 0.01099189 0.02025000 0.01759590
v 0.00676458 0.02025000 0.01477675
v 0.01806010 0.02025000 0.02486233
v 0.04553230 0.02025000 0.00600000
v 0.04553230 0.01425000 0.00600000
v 0.04784169 -0.01425000 0.02600001
v 0.04553230 -0.01425000 0.02600001
v 0.04553230 -0.01425000 0.00600000
v 0.03584169 -0.01425000 0.02600001
v 0.04553230 -0.02025000 0.00600000
v -0.00266032 0.02225000 0.01104410
v 0.00218365 0.02025000 0.01257832
v -0.00266032 -0.02025000 0.01104410
v 0.00218365 -0.02225000 0.01257832
v -0.00266032 0.02025000 0.01104410
v -0.00266032 -0.02225000 0.01104410
v 0.05768700 0.00552518 0.00760476
v 0.05768700 -0.00552518 0.00760476
v 0.04899641 0.02025000 0.02800001
v 0.03584169 0.02025000 0.02600001
v 0.04553230 0.02025000 0.02600001
v 0.04784169 0.02025000 0.02600001
v 0.04553230 0.01425000 0.02600001
v 0.03584169 -0.02025000 0.02600001
v 0.04784169 -0.02025000 0.02600001
v 0.04553230 -0.02025000 0.02600001
v 0.03353228 0.02025000 0.02600001
v 0.02076133 0.02025000 0.02916597
v 0.03584169 0.01425000 0.02600001
v 0.05768700 0.00290476 0.00893994
v 0.05768700 -0.01325000 0.03524999
v 0.05768700 -0.00290476 0.00893994
v 0.05768700 -0.00000000 0.00939999
v 0.05768700 0.01325000 0.03524999
v 0.02076133 0.02225000 0.02916597
v 0.02076133 -0.02025000 0.02916597
v 0.03237759 -0.02025000 0.02800001
v 0.02076133 -0.02225000 0.02916597
v 0.04899641 0.01425000 0.02800001
v 0.04899641 -0.01425000 0.02800001
v 0.04899641 -0.02025000 0.02800001
v 0.03584169 0.02025000 0.02999999
v 0.03699638 0.02025000 0.02800001
v 0.04437758 0.02025000 0.02800001
v 0.04437758 0.01425000 0.02800001
v 0.03699638 -0.01425000 0.02800001
v 0.04437758 -0.01425000 0.02800001
v 0.04437758 -0.02025000 0.02800001
v 0.03699638 0.01425000 0.02800001
v 0.03699638 -0.02025000 0.02800001
v 0.03237759 0.02025000 0.02800001
v 0.03237759 -0.01425000 0.02800001
v 0.04784169 0.02025000 0.02999999
v 0.04784169 0.01425000 0.02999999
v 0.04784169 -0.01425000 0.02999999
v 0.04784169 -0.02025000 0.02999999
v 0.05538698 -0.02025000 0.03545000
v 0.05663701 -0.02025000 0.03511508
v 0.04553230 0.02025000 0.02999999
v 0.04553230 0.01425000 0.02999999
v 0.03584169 -0.01425000 0.02999999
v 0.04553230 -0.01425000 0.02999999
v 0.04553230 -0.02025000 0.02999999
v 0.03584169 0.01425000 0.02999999
v 0.03584169 -0.02025000 0.02999999
v 0.02283223 0.02025000 0.03380592
v 0.02336313 0.02025000 0.03466605
v 0.03353228 0.02025000 0.02999999
v 0.02518116 0.02025000 0.03545000
v 0.02419125 0.02025000 0.03524567
v 0.03353228 0.01425000 0.02999999
v 0.03353228 -0.01425000 0.02999999
v 0.02283223 -0.02025000 0.03380592
v 0.02419125 -0.02025000 0.03524567
v 0.03353228 -0.02025000 0.02999999
v 0.02336313 -0.02025000 0.03466605
v 0.02283223 0.02225000 0.03380592
v 0.02283223 -0.02225000 0.03380592
v 0.05769669 0.02025000 0.03390671
v 0.05715476 0.02025000 0.03471775
v 0.05538698 0.02025000 0.03545000
v 0.05634369 0.02025000 0.03525971
v 0.02518116 -0.02025000 0.03545000
v 0.02518116 0.02225000 0.03545000
v 0.05538698 0.02225000 0.03545000
v 0.05769669 0.02225000 0.03390671
v 0.05755206 -0.02025000 0.03420000
v 0.05538698 -0.02225000 0.03545000
v 0.05663701 -0.02225000 0.03511508
v 0.05755206 -0.02225000 0.03420000
v 0.02336313 0.02225000 0.03466605
v 0.02419125 0.02225000 0.03524567
v 0.02336313 -0.02225000 0.03466605
v 0.02518116 -0.02225000 0.03545000
v 0.05715476 0.02225000 0.03471775
v 0.02368699 -0.01325000 0.03524999
v 0.02368699 0.01325000 0.03524999
v 0.02419125 -0.02225000 0.03524567
v 0.05634369 0.02225000 0.03525971
f 1 2 3
f 4 1 3
f 5 6 3
f 6 7 3
f 7 8 3
f 8 4 3
f 9 5 3
f 2 9 3
f 10 11 2
f 12 10 2
f 1 12 2
f 11 13 2
f 13 14 2
f 14 9 2
f 15 16 17
f 16 18 17
f 18 19 17
f 19 20 17
f 20 21 17
f 22 15 17
f 21 22 17
f 23 22 21
f 20 24 21
f 24 25 21
f 25 23 21
f 26 27 5
f 27 6 5
f 9 28 5
f 28 26 5
f 14 29 9
f 29 28 9
f 30 31 15
f 31 16 15
f 32 30 15
f 22 33 15
f 33 32 15
f 23 34 22
f 34 33 22
f 35 36 37
f 36 38 37
f 38 39 37
f 39 40 37
f 40 41 37
f 42 43 37
f 41 42 37
f 43 35 37
f 40 44 41
f 44 45 41
f 45 46 41
f 47 42 41
f 46 47 41
f 48 35 43
f 42 48 43
f 47 48 42
f 49 27 26
f 28 50 26
f 50 49 26
f 29 51 28
f 51 50 28
f 52 30 32
f 33 53 32
f 53 52 32
f 34 54 33
f 54 53 33
f 8 55 4
f 55 56 4
f 56 1 4
f 57 12 1
f 56 57 1
f 18 58 19
f 58 59 19
f 59 20 19
f 60 61 20
f 61 24 20
f 59 60 20
f 62 63 35
f 63 64 35
f 64 36 35
f 48 65 35
f 66 62 35
f 67 66 35
f 68 67 35
f 65 68 35
f 45 69 46
f 70 71 46
f 72 70 46
f 69 72 46
f 71 73 46
f 73 74 46
f 74 47 46
f 75 65 48
f 76 75 48
f 77 76 48
f 78 77 48
f 47 78 48
f 74 79 47
f 79 80 47
f 81 82 47
f 80 81 47
f 82 78 47
f 83 84 49
f 84 27 49
f 50 85 49
f 85 83 49
f 51 86 50
f 86 85 50
f 87 30 52
f 88 87 52
f 53 89 52
f 89 88 52
f 54 90 53
f 90 89 53
f 39 91 92
f 40 39 92
f 93 40 92
f 94 93 92
f 91 94 92
f 93 44 40
f 38 95 91
f 39 38 91
f 95 94 91
f 96 44 93
f 94 97 93
f 97 98 93
f 98 99 93
f 99 96 93
f 96 45 44
f 100 101 83
f 101 84 83
f 85 102 83
f 102 100 83
f 86 102 85
f 103 87 88
f 104 103 88
f 89 105 88
f 105 104 88
f 90 105 89
f 36 106 95
f 38 36 95
f 106 107 95
f 107 108 95
f 108 94 95
f 109 45 96
f 99 109 96
f 109 69 45
f 110 101 100
f 102 111 100
f 111 110 100
f 86 112 102
f 112 111 102
f 113 103 104
f 105 114 104
f 114 113 104
f 90 115 105
f 115 114 105
f 64 116 106
f 36 64 106
f 116 117 106
f 117 118 106
f 118 107 106
f 119 69 109
f 120 119 109
f 121 120 109
f 99 122 109
f 122 121 109
f 119 72 69
f 27 51 6
f 51 29 6
f 29 7 6
f 14 7 29
f 123 16 31
f 124 123 31
f 30 54 31
f 54 34 31
f 34 124 31
f 23 124 34
f 84 86 27
f 86 51 27
f 87 90 30
f 90 54 30
f 14 8 7
f 13 8 14
f 125 123 124
f 23 125 124
f 25 125 23
f 101 112 84
f 112 86 84
f 103 115 87
f 115 90 87
f 63 117 116
f 64 63 116
f 120 72 119
f 120 70 72
f 126 127 110
f 127 101 110
f 111 126 110
f 112 128 111
f 128 129 111
f 129 126 111
f 130 131 113
f 131 103 113
f 114 130 113
f 115 132 114
f 132 133 114
f 133 130 114
f 13 55 8
f 11 55 13
f 134 123 125
f 25 134 125
f 24 134 25
f 127 128 101
f 128 112 101
f 131 132 103
f 132 115 103
f 135 118 117
f 63 135 117
f 121 70 120
f 62 135 63
f 136 71 70
f 121 136 70
f 137 56 55
f 11 137 55
f 138 139 11
f 10 138 11
f 139 137 11
f 140 123 134
f 24 140 134
f 61 140 24
f 126 141 127
f 141 142 127
f 142 143 127
f 143 144 127
f 144 128 127
f 144 145 128
f 145 146 128
f 146 129 128
f 130 147 131
f 147 148 131
f 148 149 131
f 149 150 131
f 150 132 131
f 150 151 132
f 151 152 132
f 152 133 132
f 129 141 126
f 146 141 129
f 133 147 130
f 152 147 133
f 146 145 141
f 145 142 141
f 152 151 147
f 151 148 147
f 153 56 137
f 139 153 137
f 138 154 139
f 154 153 139
f 155 156 140
f 156 123 140
f 61 155 140
f 157 158 61
f 60 157 61
f 158 155 61
f 142 159 143
f 159 160 143
f 160 161 143
f 161 144 143
f 161 162 144
f 162 163 144
f 163 145 144
f 148 164 149
f 164 165 149
f 165 166 149
f 166 150 149
f 166 167 150
f 167 168 150
f 168 151 150
f 68 138 10
f 67 68 10
f 12 67 10
f 65 138 68
f 18 79 74
f 73 58 74
f 58 18 74
f 16 79 18
f 169 170 138
f 170 154 138
f 65 169 138
f 75 169 65
f 16 80 79
f 123 80 16
f 171 107 118
f 135 171 118
f 122 136 121
f 62 171 135
f 172 71 136
f 122 172 136
f 145 163 142
f 163 159 142
f 151 168 148
f 168 164 148
f 173 174 153
f 174 175 153
f 175 56 153
f 176 177 153
f 177 178 153
f 178 173 153
f 154 176 153
f 170 176 154
f 179 180 155
f 180 181 155
f 181 182 155
f 183 156 155
f 184 183 155
f 182 184 155
f 158 179 155
f 185 186 158
f 157 187 158
f 187 188 158
f 188 185 158
f 186 179 158
f 159 189 160
f 189 190 160
f 190 191 160
f 191 192 160
f 192 161 160
f 192 193 161
f 193 162 161
f 164 194 165
f 194 195 165
f 195 196 165
f 196 197 165
f 197 166 165
f 197 198 166
f 198 167 166
f 57 199 12
f 200 67 12
f 199 200 12
f 200 66 67
f 71 201 73
f 201 202 73
f 202 58 73
f 202 59 58
f 203 204 169
f 204 205 169
f 205 170 169
f 206 203 169
f 207 206 169
f 75 207 169
f 76 208 75
f 208 207 75
f 209 210 80
f 211 209 80
f 212 81 80
f 210 212 80
f 123 211 80
f 156 213 123
f 213 211 123
f 191 214 176
f 214 177 176
f 170 191 176
f 205 215 170
f 215 192 170
f 192 191 170
f 196 216 179
f 216 180 179
f 186 196 179
f 185 217 186
f 217 197 186
f 197 196 186
f 190 214 191
f 215 218 192
f 218 193 192
f 195 216 196
f 217 219 197
f 219 198 197
f 220 108 107
f 171 220 107
f 99 172 122
f 62 220 171
f 221 71 172
f 99 221 172
f 163 162 159
f 162 189 159
f 168 167 164
f 167 194 164
f 57 222 199
f 223 207 199
f 224 223 199
f 225 224 199
f 222 225 199
f 208 200 199
f 207 208 199
f 208 226 200
f 226 66 200
f 209 211 201
f 71 209 201
f 211 213 201
f 213 202 201
f 156 227 202
f 228 59 202
f 229 228 202
f 227 229 202
f 213 156 202
f 223 230 207
f 231 206 207
f 230 231 207
f 76 232 208
f 232 226 208
f 233 94 108
f 220 233 108
f 98 221 99
f 62 233 220
f 234 71 221
f 235 234 221
f 98 235 221
f 162 193 189
f 193 190 189
f 167 198 194
f 198 195 194
f 236 97 94
f 233 236 94
f 97 235 98
f 237 236 233
f 62 237 233
f 236 234 235
f 97 236 235
f 237 234 236
f 193 218 190
f 218 214 190
f 198 219 195
f 219 216 195
f 218 177 214
f 215 177 218
f 219 180 216
f 217 180 219
f 215 178 177
f 205 178 215
f 217 181 180
f 185 181 217
f 205 173 178
f 204 173 205
f 185 182 181
f 188 182 185
f 204 174 173
f 203 174 204
f 188 184 182
f 187 184 188
f 203 175 174
f 206 175 203
f 187 183 184
f 157 183 187
f 238 56 175
f 206 238 175
f 231 238 206
f 239 240 183
f 240 156 183
f 157 239 183
f 60 241 157
f 241 239 157
f 66 224 225
f 242 66 225
f 222 242 225
f 242 62 66
f 226 224 66
f 71 243 209
f 228 210 209
f 243 244 209
f 244 228 209
f 244 59 228
f 229 210 228
f 245 246 224
f 247 245 224
f 246 223 224
f 226 247 224
f 232 248 226
f 248 247 226
f 249 212 210
f 250 249 210
f 229 250 210
f 227 251 229
f 251 250 229
f 232 230 223
f 252 232 223
f 246 252 223
f 252 248 232
f 76 230 232
f 227 81 212
f 249 253 212
f 253 227 212
f 253 251 227
f 156 81 227
f 254 231 230
f 76 254 230
f 77 254 76
f 255 82 81
f 156 255 81
f 240 255 156
f 57 256 222
f 257 242 222
f 256 257 222
f 257 62 242
f 71 258 243
f 258 259 243
f 259 244 243
f 259 260 244
f 260 261 244
f 261 59 244
f 262 245 247
f 248 262 247
f 252 263 248
f 263 262 248
f 264 249 250
f 265 264 250
f 251 265 250
f 253 266 251
f 266 265 251
f 267 252 246
f 245 267 246
f 267 263 252
f 264 268 249
f 268 253 249
f 268 266 253
f 269 231 254
f 270 269 254
f 271 272 254
f 272 273 254
f 273 270 254
f 77 271 254
f 78 274 77
f 274 271 77
f 275 82 255
f 240 275 255
f 239 276 240
f 277 278 240
f 279 277 240
f 276 279 240
f 278 275 240
f 280 56 238
f 231 280 238
f 269 280 231
f 241 276 239
f 60 281 241
f 281 276 241
f 57 282 256
f 282 283 256
f 284 262 256
f 285 284 256
f 283 285 256
f 263 257 256
f 262 263 256
f 263 62 257
f 71 265 258
f 265 266 258
f 266 259 258
f 266 260 259
f 272 245 262
f 284 272 262
f 78 62 263
f 267 78 263
f 71 264 265
f 268 260 266
f 272 271 245
f 274 267 245
f 271 274 245
f 274 78 267
f 82 275 264
f 71 82 264
f 275 278 264
f 278 268 264
f 286 260 268
f 278 286 268
f 277 286 278
f 280 287 56
f 287 288 56
f 288 289 56
f 289 57 56
f 289 282 57
f 261 290 59
f 290 60 59
f 291 281 60
f 292 291 60
f 293 292 60
f 290 293 60
f 294 295 280
f 295 287 280
f 269 270 280
f 270 294 280
f 281 296 276
f 296 279 276
f 297 296 281
f 291 297 281
f 288 298 289
f 298 282 289
f 298 283 282
f 261 293 290
f 261 292 293
f 78 237 62
f 299 82 71
f 234 299 71
f 300 237 78
f 82 300 78
f 299 300 82
f 270 273 294
f 273 295 294
f 296 301 279
f 301 277 279
f 297 301 296
f 288 302 298
f 302 283 298
f 302 285 283
f 260 292 261
f 260 291 292
f 273 272 295
f 272 287 295
f 301 297 277
f 297 286 277
f 300 234 237
f 300 299 234
f 288 285 302
f 288 284 285
f 287 284 288
f 287 272 284
f 286 291 260
f 286 297 291

