# https://github.com/mikedh/trimesh

o link3.STL
v 0.08449999 -0.00478420 -0.02096094
v 0.08400000 -0.00489546 -0.02144842
v 0.08400000 0.00000000 -0.02200000
v 0.08449999 -0.00000000 -0.02150001
v 0.08300000 0.00000000 -0.02200000
v 0.08300000 0.00489546 -0.02144842
v 0.08400000 0.00489546 -0.02144842
v 0.08300000 -0.00489546 -0.02144842
v 0.08250000 0.00000000 -0.02150001
v 0.08250000 0.00478420 -0.02096094
v 0.08449999 0.00478420 -0.02096094
v 0.08449999 0.00478420 0.02096094
v 0.08449999 -0.00000000 0.02150001
v 0.08449999 0.00932850 0.01937084
v 0.08250000 -0.00478420 -0.02096094
v 0.08250000 -0.00474597 -0.01220001
v 0.08250000 0.00474597 -0.01220001
v 0.08300000 0.00954544 -0.01982130
v 0.08400000 0.00954544 -0.01982130
v 0.08400000 -0.00954544 -0.01982130
v 0.08449999 -0.00932850 -0.01937084
v 0.08250000 0.00932850 -0.01937084
v 0.08300000 -0.00954544 -0.01982130
v 0.08449999 0.00932850 -0.01937084
v 0.08449999 0.01340503 0.01680939
v 0.08449999 0.01937083 0.00932850
v 0.08449999 0.01680938 0.01340504
v 0.08449999 -0.00478420 0.02096094
v 0.08449999 -0.00932850 0.01937084
v 0.08250000 0.00817435 -0.01259704
v 0.08250000 -0.00932850 -0.01937084
v 0.08250000 -0.01142122 -0.01376717
v 0.08250000 -0.00817435 -0.01259704
v 0.08300000 0.01371678 -0.01720031
v 0.08400000 0.01371678 -0.01720031
v 0.08400000 -0.01371678 -0.01720031
v 0.08449999 -0.01340503 -0.01680939
v 0.08250000 0.01340503 -0.01680939
v 0.08300000 -0.01371678 -0.01720031
v 0.08449999 0.01340503 -0.01680939
v 0.08250000 0.01142122 -0.01376717
v 0.08250000 -0.01340503 -0.01680939
v 0.08250000 -0.01226551 -0.01394878
v 0.08300000 0.01720029 -0.01371677
v 0.08400000 0.01720029 -0.01371677
v 0.08400000 -0.01720029 -0.01371677
v 0.08449999 -0.01680938 -0.01340504
v 0.08250000 0.01680938 -0.01340504
v 0.08300000 -0.01720029 -0.01371677
v 0.03250000 0.00995981 -0.00985001
v 0.03250000 0.01265470 -0.01700000
v 0.03250000 0.02290000 -0.01700000
v 0.03250000 0.01000000 -0.00969999
v 0.03250000 0.01000000 -0.00215001
v 0.03250000 0.01000000 0.00215001
v 0.03250000 0.01000000 0.00970001
v 0.03250000 0.02290000 0.02499999
v 0.03050000 0.02207157 -0.01700000
v 0.02550000 0.02990000 -0.01700000
v 0.03050000 0.01265470 -0.01700000
v 0.03250000 0.01201191 -0.01676606
v 0.03250000 0.01231268 -0.01693968
v 0.03250000 0.00985000 -0.00995980
v 0.03250000 -0.00985000 -0.00995980
v 0.03250000 -0.02290000 -0.01700000
v 0.03250000 -0.01236603 -0.01700000
v 0.03250000 -0.01178868 -0.01650001
v 0.03250000 -0.01193301 -0.01674999
v 0.03250000 -0.01211603 -0.01693301
v 0.03050000 -0.02207157 -0.01700000
v 0.03050000 -0.01236603 -0.01700000
v 0.03050000 -0.01211603 -0.01693301
v 0.03250000 -0.00995981 -0.00985001
v 0.03250000 -0.01000000 -0.00969999
v 0.03250000 -0.02290000 0.02499999
v 0.02550000 -0.02990000 0.02499999
v 0.02550000 -0.02990000 -0.01700000
v 0.02467157 -0.02790000 -0.01700000
v 0.03050000 0.01238675 0.02200000
v 0.03050000 0.02207157 0.02499999
v 0.03050000 0.01165470 0.02126794
v 0.03050000 0.01178868 -0.01650001
v 0.02467157 0.02790000 -0.01700000
v 0.02467157 0.02790000 0.02499999
v 0.03050000 0.01231268 -0.01693968
v 0.03050000 0.01201191 -0.01676606
v 0.03050000 -0.02207157 0.02499999
v 0.03050000 -0.01193301 -0.01674999
v -0.00150000 0.02990000 -0.01700000
v 0.00000000 0.02990000 -0.00700001
v 0.00267878 0.02990000 -0.00646715
v 0.00494975 0.02990000 -0.00494973
v 0.00646716 0.02990000 -0.00267880
v 0.00700000 0.02990000 0.00000001
v 0.02550000 0.02990000 0.02499999
v 0.00700000 -0.02990000 0.00000001
v 0.00646716 -0.02990000 -0.00267880
v 0.00494975 -0.02990000 -0.00494973
v 0.00267878 -0.02990000 -0.00646715
v -0.00150000 -0.02990000 -0.01700000
v 0.00646716 -0.02990000 0.00267880
v -0.00150000 -0.02790000 -0.01700000
v -0.00150000 0.02790000 -0.01700000
v 0.00700000 0.02790000 0.00000001
v 0.00646716 0.02790000 -0.00267880
v 0.00494975 0.02790000 -0.00494973
v 0.00267878 0.02790000 -0.00646715
v 0.00646716 0.02790000 0.00267880
v 0.00000000 -0.02790000 -0.00700001
v 0.00267878 -0.02790000 -0.00646715
v 0.00494975 -0.02790000 -0.00494973
v 0.00646716 -0.02790000 -0.00267880
v 0.00700000 -0.02790000 0.00000001
v 0.02467157 -0.02790000 0.02499999
v -0.00275000 0.02790000 -0.01666506
v -0.00275000 0.02990000 -0.01666506
v -0.00150000 0.02990000 -0.00700001
v -0.00400000 0.02990000 -0.01450001
v -0.00366507 0.02990000 -0.01575001
v 0.00000000 0.02790000 -0.00700001
v -0.00150000 0.02790000 -0.00700001
v -0.00400000 0.02790000 -0.01450001
v -0.00400000 0.02790000 -0.00950001
v -0.00150000 -0.02790000 -0.00700001
v -0.00400000 -0.02790000 -0.01450001
v -0.00366507 -0.02790000 -0.01575001
v -0.00275000 -0.02790000 -0.01666506
v -0.00275000 -0.02990000 -0.01666506
v 0.00000000 -0.02990000 -0.00700001
v -0.00150000 -0.02990000 -0.00700001
v -0.00400000 -0.02990000 -0.01450001
v -0.00400000 -0.02990000 -0.00950001
v 0.08449999 0.01680938 -0.01340504
v 0.08250000 0.01309385 -0.01370449
v 0.08250000 0.01226551 -0.01394878
v 0.08250000 -0.01680938 -0.01340504
v 0.08250000 -0.01370451 -0.01309384
v 0.08250000 -0.01309385 -0.01370449
v 0.03250000 0.01178868 -0.01650001
v 0.03050000 -0.01178868 -0.01650001
v -0.00366507 0.02790000 -0.01575001
v -0.00366507 -0.02990000 -0.01575001
v 0.03250000 0.01142265 -0.01613398
v 0.03050000 0.01142265 -0.01613398
v 0.03250000 -0.01142265 -0.01613398
v 0.03050000 -0.01142265 -0.01613398
v 0.03250000 0.01092265 -0.01599999
v 0.03050000 0.01092265 -0.01599999
v 0.03250000 0.00215000 -0.01000001
v 0.03250000 -0.00215000 -0.01000001
v 0.03250000 -0.01092265 -0.01599999
v 0.03250000 -0.00970000 -0.01000001
v 0.03050000 0.01065470 0.02100001
v 0.03050000 -0.01238675 0.02200000
v 0.03050000 -0.01165470 0.02126794
v 0.03050000 -0.01065470 0.02100001
v 0.03050000 -0.01092265 -0.01599999
v 0.03250000 0.00970000 -0.01000001
v -0.00400000 0.02990000 -0.00950001
v -0.00400000 -0.02790000 -0.00950001
v 0.05250000 0.01309385 -0.01370449
v 0.05250000 0.01226551 -0.01394878
v 0.05250000 -0.01226551 -0.01394878
v 0.05250000 -0.01142122 -0.01376717
v 0.05250000 0.00970000 -0.01000001
v 0.05250000 0.00985000 -0.00995980
v 0.05250000 0.01142122 -0.01376717
v 0.05250000 -0.00985000 -0.00995980
v 0.05250000 -0.01309385 -0.01370449
v 0.05250000 0.00817435 -0.01259704
v 0.05250000 -0.00970000 -0.01000001
v 0.05250000 -0.00817435 -0.01259704
v 0.08300000 0.01982132 -0.00954543
v 0.08400000 0.01982132 -0.00954543
v 0.08400000 -0.01982132 -0.00954543
v 0.08449999 -0.01937083 -0.00932850
v 0.08250000 0.01937083 -0.00932850
v 0.08300000 -0.01982132 -0.00954543
v 0.08250000 0.01370451 -0.01309384
v 0.05250000 0.01370451 -0.01309384
v 0.05250000 -0.01370451 -0.01309384
v 0.05250000 -0.01394877 -0.01226552
v 0.08449999 0.01937083 -0.00932850
v 0.08449999 -0.01340503 0.01680939
v 0.08449999 -0.01680938 0.01340504
v 0.08250000 0.01394877 -0.01226552
v 0.08250000 -0.01937083 -0.00932850
v 0.08250000 -0.01395000 -0.01220001
v 0.08250000 -0.01394877 -0.01226552
v 0.05250000 0.01394877 -0.01226552
v 0.05250000 0.00474597 -0.01220001
v 0.05250000 0.00215000 -0.01000001
v 0.05250000 -0.00474597 -0.01220001
v 0.08250000 0.01395000 -0.01220001
v 0.05250000 -0.01395000 -0.01220001
v 0.05250000 0.01395000 -0.01220001
v 0.05250000 -0.00995981 -0.00985001
v 0.08250000 0.01376716 -0.01142122
v 0.08250000 -0.01376716 -0.01142122
v 0.05250000 -0.01376716 -0.01142122
v 0.05250000 0.00995981 -0.00985001
v 0.05250000 0.01376716 -0.01142122
v 0.05250000 -0.00215000 -0.01000001
v 0.05250000 -0.01000000 -0.00969999
v 0.08250000 0.02096095 -0.00478421
v 0.08250000 0.01259705 -0.00817435
v 0.08250000 -0.01259705 -0.00817435
v 0.05250000 -0.01259705 -0.00817435
v 0.05250000 0.01000000 -0.00969999
v 0.05250000 0.01259705 -0.00817435
v 0.05250000 0.00215000 -0.00300001
v 0.03250000 0.00215000 -0.00300001
v 0.05250000 -0.00215000 -0.00300001
v 0.03250000 -0.00215000 -0.00300001
v 0.05250000 0.01000000 -0.00215001
v 0.05250000 0.01220000 -0.00474598
v 0.05250000 -0.01000000 -0.00215001
v 0.03250000 -0.01000000 -0.00215001
v 0.08300000 0.02144841 -0.00489546
v 0.08400000 0.02144841 -0.00489546
v 0.08400000 -0.02144841 -0.00489546
v 0.08449999 -0.02096095 -0.00478421
v 0.08300000 -0.02144841 -0.00489546
v -0.00366507 0.02990000 -0.00825001
v -0.00275000 0.02990000 -0.00733493
v -0.00366507 0.02790000 -0.00825001
v -0.00366507 -0.02790000 -0.00825001
v -0.00275000 -0.02790000 -0.00733493
v -0.00366507 -0.02990000 -0.00825001
v 0.08449999 0.02096095 -0.00478421
v 0.08449999 0.02150000 0.00000001
v 0.08449999 0.02096095 0.00478421
v 0.08250000 -0.02096095 -0.00478421
v -0.00275000 0.02790000 -0.00733493
v -0.00275000 -0.02990000 -0.00733493
v 0.08250000 0.01220000 -0.00474598
v 0.08250000 -0.01220000 -0.00474598
v 0.05250000 -0.01220000 -0.00474598
v 0.08300000 0.02200000 0.00000001
v 0.08400000 0.02200000 0.00000001
v 0.08400000 -0.02200000 0.00000001
v 0.08449999 -0.02150000 0.00000001
v 0.08250000 0.02150000 0.00000001
v 0.08300000 -0.02200000 0.00000001
v 0.08250000 -0.02150000 0.00000001
v 0.08250000 0.01220000 0.00474597
v 0.08250000 -0.01220000 0.00474597
v 0.05250000 -0.01220000 0.00474597
v 0.05250000 0.01220000 0.00474597
v 0.05250000 -0.01000000 0.00215001
v 0.05250000 0.00300000 -0.00215001
v 0.05250000 0.00300000 0.00215001
v 0.05250000 0.01000000 0.00215001
v 0.03250000 0.00300000 -0.00215001
v 0.05250000 -0.00300000 0.00215001
v 0.05250000 -0.00300000 -0.00215001
v 0.03250000 -0.00300000 0.00215001
v 0.03250000 -0.00300000 -0.00215001
v 0.03250000 0.00300000 0.00215001
v 0.03250000 -0.01000000 0.00215001
v 0.03250000 -0.01165470 0.02126794
v 0.08400000 0.02144841 0.00489546
v 0.08449999 -0.02096095 0.00478421
v 0.08300000 0.02144841 0.00489546
v 0.08400000 -0.02144841 0.00489546
v 0.08250000 0.02096095 0.00478421
v 0.08300000 -0.02144841 0.00489546
v 0.08250000 -0.02096095 0.00478421
v 0.00646716 0.02990000 0.00267880
v 0.00646716 -0.02790000 0.00267880
v 0.05250000 0.01000000 0.00970001
v 0.05250000 0.01259705 0.00817434
v 0.05250000 -0.01000000 0.00970001
v 0.03250000 -0.01000000 0.00970001
v 0.00494975 0.02990000 0.00494973
v 0.00494975 0.02790000 0.00494973
v 0.00494975 -0.02790000 0.00494973
v 0.00494975 -0.02990000 0.00494973
v 0.05250000 -0.00215000 0.00300001
v 0.05250000 0.00215000 0.01000000
v 0.05250000 0.00215000 0.00300001
v 0.03250000 0.00215000 0.01000000
v 0.03250000 0.00215000 0.00300001
v 0.05250000 -0.00215000 0.01000000
v 0.03250000 -0.00215000 0.00300001
v 0.03250000 -0.00215000 0.01000000
v 0.08250000 0.01259705 0.00817434
v 0.08250000 -0.01259705 0.00817434
v 0.05250000 -0.01259705 0.00817434
v 0.08400000 0.01982132 0.00954543
v 0.08449999 -0.01937083 0.00932850
v 0.08250000 0.01937083 0.00932850
v 0.08250000 -0.01937083 0.00932850
v 0.08250000 -0.01376716 0.01142122
v 0.08300000 -0.01982132 0.00954543
v 0.08300000 0.01982132 0.00954543
v 0.08400000 -0.01982132 0.00954543
v 0.00267878 0.02990000 0.00646715
v 0.00729796 0.02990000 0.01700000
v 0.01309362 0.02990000 0.01885076
v 0.01033995 0.02990000 0.01747392
v 0.01033995 0.02790000 0.01747392
v 0.00267878 0.02790000 0.00646715
v 0.01309362 0.02790000 0.01885076
v 0.00267878 -0.02790000 0.00646715
v 0.00729796 -0.02790000 0.01700000
v 0.01309362 -0.02790000 0.01885076
v 0.01033995 -0.02790000 0.01747392
v 0.01033995 -0.02990000 0.01747392
v 0.00267878 -0.02990000 0.00646715
v 0.01309362 -0.02990000 0.01885076
v 0.00000000 0.02990000 0.00700001
v -0.00150000 0.02990000 0.01700000
v 0.00729796 0.02790000 0.01700000
v 0.00000000 0.02790000 0.00700001
v 0.00000000 -0.02790000 0.00700001
v -0.00150000 -0.02790000 0.01700000
v 0.00729796 -0.02990000 0.01700000
v 0.00000000 -0.02990000 0.00700001
v -0.00150000 0.02990000 0.00700001
v -0.00150000 0.02790000 0.00700001
v -0.00150000 0.02790000 0.01700000
v -0.00150000 -0.02790000 0.00700001
v -0.00150000 -0.02990000 0.00700001
v -0.00150000 -0.02990000 0.01700000
v -0.00400000 0.02990000 0.00950001
v -0.00366507 0.02990000 0.00825001
v -0.00275000 0.02990000 0.00733493
v -0.00275000 0.02790000 0.00733493
v -0.00400000 0.02790000 0.00950001
v -0.00400000 0.02790000 0.01450001
v -0.00400000 -0.02790000 0.00950001
v -0.00366507 -0.02790000 0.00825001
v -0.00275000 -0.02790000 0.00733493
v -0.00275000 -0.02990000 0.00733493
v -0.00400000 -0.02990000 0.00950001
v -0.00400000 -0.02990000 0.01450001
v -0.00366507 0.02790000 0.00825001
v -0.00366507 -0.02990000 0.00825001
v 0.08250000 0.01376716 0.01142122
v 0.05250000 -0.01376716 0.01142122
v 0.05250000 0.01376716 0.01142122
v 0.08400000 0.01720029 0.01371677
v 0.08250000 0.01395000 0.01220001
v 0.08250000 0.01680938 0.01340504
v 0.08250000 -0.01680938 0.01340504
v 0.08250000 -0.01394877 0.01226552
v 0.08250000 -0.01395000 0.01220001
v 0.08300000 -0.01720029 0.01371677
v -0.00400000 0.02990000 0.01450001
v -0.00400000 -0.02790000 0.01450001
v 0.08300000 0.01720029 0.01371677
v 0.08400000 -0.01720029 0.01371677
v 0.03250000 0.00995981 0.00985001
v 0.05250000 0.00995981 0.00985001
v 0.05250000 0.01395000 0.01220001
v 0.05250000 -0.00995981 0.00985001
v 0.03250000 -0.00995981 0.00985001
v 0.03250000 0.00985000 0.00995980
v 0.05250000 0.00985000 0.00995980
v 0.05250000 0.01394877 0.01226552
v 0.05250000 -0.01395000 0.01220001
v 0.05250000 -0.00985000 0.00995980
v 0.03250000 -0.00985000 0.00995980
v 0.03250000 0.00970000 0.01000000
v 0.05250000 0.00970000 0.01000000
v 0.05250000 0.01142122 0.01376717
v 0.05250000 0.01226551 0.01394878
v 0.05250000 0.01309385 0.01370449
v 0.05250000 -0.01226551 0.01394878
v 0.05250000 -0.00970000 0.01000000
v 0.05250000 -0.01394877 0.01226552
v 0.05250000 -0.01370451 0.01309384
v 0.05250000 -0.01309385 0.01370449
v 0.03250000 0.01238675 0.02200000
v 0.03250000 -0.00970000 0.01000000
v 0.05250000 0.00474597 0.01220001
v 0.05250000 0.00817435 0.01259704
v 0.05250000 -0.00474597 0.01220001
v 0.05250000 -0.00817435 0.01259704
v 0.05250000 -0.01142122 0.01376717
v 0.03250000 0.01165470 0.02126794
v 0.03250000 0.01065470 0.02100001
v 0.03250000 -0.01065470 0.02100001
v 0.08250000 0.01394877 0.01226552
v 0.08250000 -0.00474597 0.01220001
v 0.08250000 0.00474597 0.01220001
v 0.08250000 0.00478420 0.02096094
v 0.08250000 0.00817435 0.01259704
v 0.08250000 -0.00000000 0.02150001
v 0.08250000 -0.00478420 0.02096094
v 0.08250000 -0.00817435 0.01259704
v 0.08250000 0.01370451 0.01309384
v 0.05250000 0.01370451 0.01309384
v 0.08250000 -0.01370451 0.01309384
v 0.08250000 0.01142122 0.01376717
v 0.08250000 -0.00932850 0.01937084
v 0.08250000 -0.01142122 0.01376717
v 0.08250000 0.01340503 0.01680939
v 0.08250000 0.01309385 0.01370449
v 0.08250000 -0.01309385 0.01370449
v 0.08400000 0.01371678 0.01720031
v 0.08250000 -0.01340503 0.01680939
v 0.08300000 -0.01371678 0.01720031
v 0.08250000 0.01226551 0.01394878
v 0.08250000 -0.01226551 0.01394878
v 0.08300000 0.01371678 0.01720031
v 0.08400000 -0.01371678 0.01720031
v 0.08250000 0.00932850 0.01937084
v -0.00366507 0.02990000 0.01575001
v -0.00275000 0.02990000 0.01666506
v -0.00366507 0.02790000 0.01575001
v -0.00366507 -0.02990000 0.01575001
v -0.00366507 -0.02790000 0.01575001
v -0.00275000 -0.02790000 0.01666506
v -0.00275000 0.02790000 0.01666506
v -0.00275000 -0.02990000 0.01666506
v 0.08400000 0.00954544 0.01982130
v 0.08300000 -0.00954544 0.01982130
v 0.08300000 0.00954544 0.01982130
v 0.08400000 -0.00954544 0.01982130
v 0.01529796 0.02990000 0.02100001
v 0.01529796 0.02790000 0.02100001
v 0.01529796 -0.02790000 0.02100001
v 0.01529796 -0.02990000 0.02100001
v 0.08400000 0.00489546 0.02144842
v 0.08300000 -0.00489546 0.02144842
v 0.08300000 0.00489546 0.02144842
v 0.08400000 -0.00489546 0.02144842
v 0.08400000 -0.00000000 0.02200000
v 0.08300000 -0.00000000 0.02200000
v 0.01750229 0.02990000 0.02314924
v 0.02025596 0.02990000 0.02452607
v 0.02329796 0.02990000 0.02499999
v 0.01750229 0.02790000 0.02314924
v 0.02025596 0.02790000 0.02452607
v 0.02329796 0.02790000 0.02499999
v 0.01750229 -0.02790000 0.02314924
v 0.02025596 -0.02790000 0.02452607
v 0.02329796 -0.02790000 0.02499999
v 0.01750229 -0.02990000 0.02314924
v 0.02025596 -0.02990000 0.02452607
v 0.02329796 -0.02990000 0.02499999
v 0.03250000 -0.01238675 0.02200000
v 0.03250000 0.01265470 0.02299999
v 0.03050000 0.01265470 0.02299999
v 0.03250000 -0.01265470 0.02299999
v 0.03050000 -0.01265470 0.02299999
v 0.03250000 0.01465470 0.02499999
v 0.03250000 0.01292265 0.02400000
v 0.03250000 -0.01292265 0.02400000
v 0.03250000 -0.01365470 0.02473204
v 0.03250000 -0.01465470 0.02499999
v 0.03050000 -0.01292265 0.02400000
v 0.03050000 0.01292265 0.02400000
v 0.03050000 0.01365470 0.02473204
v 0.03050000 0.01465470 0.02499999
v 0.03050000 -0.01465470 0.02499999
v 0.03250000 0.01365470 0.02473204
v 0.03050000 -0.01365470 0.02473204
f 1 2 3
f 4 1 3
f 2 5 3
f 6 7 3
f 5 6 3
f 7 4 3
f 2 8 5
f 8 9 5
f 10 6 5
f 9 10 5
f 7 11 4
f 12 13 4
f 13 1 4
f 14 12 4
f 11 14 4
f 8 15 9
f 15 16 9
f 16 17 9
f 17 10 9
f 18 19 7
f 6 18 7
f 19 11 7
f 20 8 2
f 21 20 2
f 1 21 2
f 22 18 6
f 10 22 6
f 23 15 8
f 20 23 8
f 19 24 11
f 25 14 11
f 24 26 11
f 26 27 11
f 27 25 11
f 13 28 1
f 28 29 1
f 29 21 1
f 17 30 10
f 30 22 10
f 31 32 15
f 32 33 15
f 33 16 15
f 23 31 15
f 34 35 19
f 18 34 19
f 35 24 19
f 36 23 20
f 37 36 20
f 21 37 20
f 38 34 18
f 22 38 18
f 39 31 23
f 36 39 23
f 35 40 24
f 40 26 24
f 29 37 21
f 30 41 22
f 41 38 22
f 42 43 31
f 43 32 31
f 39 42 31
f 44 45 35
f 34 44 35
f 45 40 35
f 46 39 36
f 47 46 36
f 37 47 36
f 48 44 34
f 38 48 34
f 49 42 39
f 46 49 39
f 50 51 52
f 53 50 52
f 54 53 52
f 55 54 52
f 56 55 52
f 57 56 52
f 58 59 52
f 60 58 52
f 51 60 52
f 59 57 52
f 61 62 51
f 63 61 51
f 50 63 51
f 62 60 51
f 64 65 66
f 67 64 66
f 68 67 66
f 69 68 66
f 70 71 66
f 65 70 66
f 72 69 66
f 71 72 66
f 64 73 65
f 73 74 65
f 74 75 65
f 75 76 65
f 76 77 65
f 78 70 65
f 77 78 65
f 79 80 58
f 81 79 58
f 82 81 58
f 60 82 58
f 83 59 58
f 80 84 58
f 84 83 58
f 85 86 60
f 86 82 60
f 62 85 60
f 70 87 71
f 88 72 71
f 87 88 71
f 78 87 70
f 83 89 59
f 89 90 59
f 90 91 59
f 91 92 59
f 92 93 59
f 93 94 59
f 94 95 59
f 95 57 59
f 96 97 77
f 97 98 77
f 98 99 77
f 99 100 77
f 101 96 77
f 76 101 77
f 102 78 77
f 100 102 77
f 103 89 83
f 104 105 83
f 105 106 83
f 106 107 83
f 107 103 83
f 108 104 83
f 84 108 83
f 102 109 78
f 109 110 78
f 110 111 78
f 111 112 78
f 112 113 78
f 113 114 78
f 114 87 78
f 115 116 89
f 103 115 89
f 117 90 89
f 118 117 89
f 119 118 89
f 116 119 89
f 107 120 103
f 120 121 103
f 122 115 103
f 123 122 103
f 121 123 103
f 124 109 102
f 125 124 102
f 126 125 102
f 127 126 102
f 128 127 102
f 100 128 102
f 99 129 100
f 129 130 100
f 131 128 100
f 132 131 100
f 130 132 100
f 61 85 62
f 61 86 85
f 88 68 69
f 72 88 69
f 45 133 40
f 133 26 40
f 29 47 37
f 134 48 38
f 41 135 38
f 135 134 38
f 136 137 42
f 137 138 42
f 138 43 42
f 49 136 42
f 63 139 61
f 139 86 61
f 139 82 86
f 140 67 68
f 88 140 68
f 87 140 88
f 141 119 116
f 115 141 116
f 122 141 115
f 142 126 127
f 128 142 127
f 131 142 128
f 63 143 139
f 143 144 139
f 144 82 139
f 145 64 67
f 140 145 67
f 144 81 82
f 87 146 140
f 146 145 140
f 63 147 143
f 147 148 143
f 148 144 143
f 149 150 145
f 151 149 145
f 150 152 145
f 152 64 145
f 146 151 145
f 148 153 144
f 153 81 144
f 87 154 146
f 154 155 146
f 155 156 146
f 156 157 146
f 157 151 146
f 158 151 147
f 63 158 147
f 151 148 147
f 158 149 151
f 157 148 151
f 157 156 148
f 156 153 148
f 122 118 119
f 141 122 119
f 131 125 126
f 142 131 126
f 159 117 118
f 122 123 118
f 123 159 118
f 160 124 125
f 131 132 125
f 132 160 125
f 161 134 135
f 162 161 135
f 41 162 135
f 138 163 43
f 163 164 43
f 164 32 43
f 165 166 162
f 166 161 162
f 167 165 162
f 41 167 162
f 168 164 163
f 169 168 163
f 138 169 163
f 30 170 41
f 170 167 41
f 164 33 32
f 170 165 167
f 168 171 164
f 171 172 164
f 172 33 164
f 173 174 45
f 44 173 45
f 174 133 45
f 175 49 46
f 176 175 46
f 47 176 46
f 177 173 44
f 48 177 44
f 178 136 49
f 175 178 49
f 179 48 134
f 180 179 134
f 161 180 134
f 137 169 138
f 166 180 161
f 181 182 169
f 182 168 169
f 137 181 169
f 174 183 133
f 183 26 133
f 29 184 47
f 184 185 47
f 185 176 47
f 179 186 48
f 186 177 48
f 187 188 136
f 188 189 136
f 189 137 136
f 178 187 136
f 180 190 179
f 190 186 179
f 189 181 137
f 166 190 180
f 189 182 181
f 17 191 30
f 191 170 30
f 172 16 33
f 192 165 170
f 191 192 170
f 171 193 172
f 193 16 172
f 194 177 186
f 190 194 186
f 188 195 189
f 195 182 189
f 166 196 190
f 196 194 190
f 197 168 182
f 195 197 182
f 198 177 194
f 196 198 194
f 193 191 17
f 16 193 17
f 187 199 188
f 199 200 188
f 200 195 188
f 201 202 196
f 166 201 196
f 202 198 196
f 203 192 191
f 193 203 191
f 171 203 193
f 204 197 195
f 200 204 195
f 205 177 198
f 206 205 198
f 202 206 198
f 187 207 199
f 207 208 199
f 208 200 199
f 201 209 202
f 209 210 202
f 210 206 202
f 208 204 200
f 149 158 165
f 192 149 165
f 158 63 165
f 63 166 165
f 203 211 192
f 212 149 192
f 211 212 192
f 213 211 203
f 152 150 203
f 171 152 203
f 150 213 203
f 168 152 171
f 212 150 149
f 212 214 150
f 214 213 150
f 168 64 152
f 63 50 166
f 50 201 166
f 197 64 168
f 197 73 64
f 50 53 201
f 53 209 201
f 204 73 197
f 204 74 73
f 215 216 209
f 216 210 209
f 53 215 209
f 208 217 204
f 218 74 204
f 217 218 204
f 54 215 53
f 218 75 74
f 219 220 174
f 173 219 174
f 220 183 174
f 221 178 175
f 222 221 175
f 176 222 175
f 205 219 173
f 177 205 173
f 223 187 178
f 221 223 178
f 224 225 159
f 225 117 159
f 226 224 159
f 123 226 159
f 121 226 123
f 227 228 160
f 228 124 160
f 229 227 160
f 132 229 160
f 130 229 132
f 220 230 183
f 230 231 183
f 232 26 183
f 231 232 183
f 185 222 176
f 233 207 187
f 223 233 187
f 234 225 224
f 226 234 224
f 121 234 226
f 235 228 227
f 229 235 227
f 130 235 229
f 236 205 206
f 210 236 206
f 233 237 207
f 237 238 207
f 238 208 207
f 216 236 210
f 238 217 208
f 121 117 225
f 234 121 225
f 130 124 228
f 235 130 228
f 117 120 90
f 120 91 90
f 117 121 120
f 107 91 120
f 129 110 109
f 124 129 109
f 99 110 129
f 124 130 129
f 107 92 91
f 106 92 107
f 99 111 110
f 98 111 99
f 106 93 92
f 105 93 106
f 98 112 111
f 97 112 98
f 239 240 220
f 219 239 220
f 240 230 220
f 241 223 221
f 242 241 221
f 222 242 221
f 243 239 219
f 205 243 219
f 244 233 223
f 241 244 223
f 240 231 230
f 185 242 222
f 236 243 205
f 245 237 233
f 244 245 233
f 246 243 236
f 216 246 236
f 245 247 237
f 248 238 237
f 247 248 237
f 215 249 216
f 249 246 216
f 250 217 238
f 248 250 238
f 214 212 211
f 213 214 211
f 105 94 93
f 104 94 105
f 97 113 112
f 96 113 97
f 251 252 215
f 252 253 215
f 253 249 215
f 54 251 215
f 54 254 251
f 254 252 251
f 250 255 256
f 217 250 256
f 257 258 256
f 255 257 256
f 258 217 256
f 258 218 217
f 55 254 54
f 55 259 254
f 259 252 254
f 257 218 258
f 257 260 218
f 261 75 218
f 260 261 218
f 240 262 231
f 262 232 231
f 185 263 242
f 263 241 242
f 264 262 240
f 239 264 240
f 265 244 241
f 263 265 241
f 266 264 239
f 243 266 239
f 267 245 244
f 265 267 244
f 246 266 243
f 268 247 245
f 267 268 245
f 269 95 94
f 104 269 94
f 108 269 104
f 270 114 113
f 96 270 113
f 101 270 96
f 271 272 253
f 272 249 253
f 55 271 253
f 259 55 253
f 252 259 253
f 260 257 255
f 250 260 255
f 248 273 250
f 274 260 250
f 273 274 250
f 56 271 55
f 274 261 260
f 275 95 269
f 108 275 269
f 84 276 108
f 276 275 108
f 277 114 270
f 101 277 270
f 76 278 101
f 278 277 101
f 279 280 281
f 282 283 281
f 280 282 281
f 283 279 281
f 284 280 279
f 283 285 279
f 285 284 279
f 286 285 283
f 282 286 283
f 286 284 285
f 287 266 246
f 249 287 246
f 268 288 247
f 288 289 247
f 289 248 247
f 272 287 249
f 289 273 248
f 262 290 232
f 290 26 232
f 185 291 263
f 291 265 263
f 287 292 266
f 292 264 266
f 293 294 268
f 294 288 268
f 267 295 268
f 295 293 268
f 296 290 262
f 264 296 262
f 297 267 265
f 291 297 265
f 292 296 264
f 297 295 267
f 298 299 275
f 300 95 275
f 301 300 275
f 299 301 275
f 276 298 275
f 302 303 276
f 304 302 276
f 84 304 276
f 303 298 276
f 305 306 277
f 307 114 277
f 308 307 277
f 306 308 277
f 278 305 277
f 309 310 278
f 311 309 278
f 76 311 278
f 310 305 278
f 312 313 298
f 313 299 298
f 303 312 298
f 314 315 303
f 302 314 303
f 315 312 303
f 316 317 305
f 317 306 305
f 310 316 305
f 318 319 310
f 309 318 310
f 319 316 310
f 320 313 312
f 315 321 312
f 321 320 312
f 322 321 315
f 314 322 315
f 323 317 316
f 319 324 316
f 324 323 316
f 325 324 319
f 318 325 319
f 326 313 320
f 327 326 320
f 328 327 320
f 321 329 320
f 329 328 320
f 330 329 321
f 331 330 321
f 322 331 321
f 332 317 323
f 333 332 323
f 334 333 323
f 324 335 323
f 335 334 323
f 336 335 324
f 337 336 324
f 325 337 324
f 329 338 328
f 338 327 328
f 330 338 329
f 335 339 334
f 339 333 334
f 336 339 335
f 340 292 287
f 272 340 287
f 294 341 288
f 341 289 288
f 271 342 272
f 342 340 272
f 341 273 289
f 338 330 327
f 330 326 327
f 339 336 333
f 336 332 333
f 290 343 26
f 343 27 26
f 185 297 291
f 344 345 292
f 340 344 292
f 345 296 292
f 346 347 293
f 347 348 293
f 348 294 293
f 295 349 293
f 349 346 293
f 350 313 326
f 330 331 326
f 331 350 326
f 351 317 332
f 336 337 332
f 337 351 332
f 352 343 290
f 296 352 290
f 353 295 297
f 185 353 297
f 345 352 296
f 353 349 295
f 56 354 271
f 354 355 271
f 355 356 271
f 356 342 271
f 341 357 273
f 357 274 273
f 57 354 56
f 358 261 274
f 357 358 274
f 354 359 355
f 359 360 355
f 360 361 355
f 361 356 355
f 341 362 357
f 362 363 357
f 363 358 357
f 57 359 354
f 364 261 358
f 363 364 358
f 359 365 360
f 365 366 360
f 367 368 360
f 366 367 360
f 368 369 360
f 369 361 360
f 370 371 363
f 362 372 363
f 372 373 363
f 373 374 363
f 374 370 363
f 371 364 363
f 375 365 359
f 57 375 359
f 376 261 364
f 371 376 364
f 280 377 366
f 377 378 366
f 378 367 366
f 365 280 366
f 284 379 280
f 379 377 280
f 365 282 280
f 371 380 284
f 380 379 284
f 286 371 284
f 370 381 371
f 381 380 371
f 286 376 371
f 382 282 365
f 375 382 365
f 382 286 282
f 382 383 286
f 383 376 286
f 383 384 376
f 384 261 376
f 342 344 340
f 362 341 294
f 348 362 294
f 356 344 342
f 385 345 344
f 356 385 344
f 377 386 387
f 388 389 387
f 390 388 387
f 386 390 387
f 389 378 387
f 378 377 387
f 377 379 386
f 391 390 386
f 392 391 386
f 379 392 386
f 372 362 348
f 347 372 348
f 361 385 356
f 380 392 379
f 393 345 385
f 361 394 385
f 394 393 385
f 346 395 347
f 395 372 347
f 369 394 361
f 395 373 372
f 388 396 389
f 396 367 389
f 367 378 389
f 397 391 392
f 398 397 392
f 380 398 392
f 381 398 380
f 399 345 393
f 400 399 393
f 394 369 393
f 369 400 393
f 346 401 395
f 401 373 395
f 401 374 373
f 343 402 27
f 402 25 27
f 184 353 185
f 399 352 345
f 403 401 346
f 349 404 346
f 404 403 346
f 405 399 400
f 369 368 400
f 368 405 400
f 403 406 401
f 406 374 401
f 406 370 374
f 407 402 343
f 352 407 343
f 408 349 353
f 184 408 353
f 399 407 352
f 408 404 349
f 409 405 396
f 388 409 396
f 405 367 396
f 403 397 398
f 406 403 398
f 370 406 398
f 381 370 398
f 405 368 367
f 409 399 405
f 410 411 350
f 411 313 350
f 412 410 350
f 331 412 350
f 322 412 331
f 413 414 351
f 337 413 351
f 414 415 351
f 415 317 351
f 325 413 337
f 416 411 410
f 412 416 410
f 322 416 412
f 417 415 414
f 413 417 414
f 325 417 413
f 322 313 411
f 416 322 411
f 325 317 415
f 417 325 415
f 402 418 25
f 418 14 25
f 29 408 184
f 409 407 399
f 404 419 403
f 419 397 403
f 313 314 299
f 314 301 299
f 313 322 314
f 302 301 314
f 318 308 306
f 317 318 306
f 309 308 318
f 317 325 318
f 420 418 402
f 407 420 402
f 421 404 408
f 29 421 408
f 409 420 407
f 421 419 404
f 302 300 301
f 304 300 302
f 309 307 308
f 311 307 309
f 422 95 300
f 304 422 300
f 423 422 304
f 84 423 304
f 424 114 307
f 311 424 307
f 76 425 311
f 425 424 311
f 418 426 14
f 426 12 14
f 28 421 29
f 388 420 409
f 419 427 397
f 427 391 397
f 428 426 418
f 420 428 418
f 429 419 421
f 28 429 421
f 388 428 420
f 429 427 419
f 426 430 12
f 430 13 12
f 13 429 28
f 390 428 388
f 427 431 391
f 431 390 391
f 81 153 383
f 382 81 383
f 156 384 383
f 153 156 383
f 156 261 384
f 155 261 156
f 432 433 422
f 433 434 422
f 434 95 422
f 423 435 422
f 435 432 422
f 436 435 423
f 84 437 423
f 437 436 423
f 438 439 424
f 439 440 424
f 440 114 424
f 425 441 424
f 441 438 424
f 442 441 425
f 76 443 425
f 443 442 425
f 79 81 382
f 375 79 382
f 444 75 261
f 155 444 261
f 154 444 155
f 431 430 426
f 428 431 426
f 430 427 429
f 13 430 429
f 390 431 428
f 430 431 427
f 57 445 375
f 446 79 375
f 445 446 375
f 447 75 444
f 154 447 444
f 446 80 79
f 448 447 154
f 87 448 154
f 449 450 445
f 57 449 445
f 450 446 445
f 451 452 447
f 453 75 447
f 452 453 447
f 448 454 447
f 454 451 447
f 450 455 446
f 455 456 446
f 456 457 446
f 457 80 446
f 458 454 448
f 87 458 448
f 435 436 432
f 436 433 432
f 441 442 438
f 442 439 438
f 449 459 450
f 459 455 450
f 454 460 451
f 460 452 451
f 459 456 455
f 458 460 454
f 436 437 433
f 437 434 433
f 442 443 439
f 443 440 439
f 449 456 459
f 460 458 452
f 458 453 452
f 449 457 456
f 80 449 57
f 84 80 57
f 95 84 57
f 80 457 449
f 458 75 453
f 87 76 75
f 458 87 75
f 114 76 87
f 437 84 95
f 434 437 95
f 114 443 76
f 440 443 114

