# https://github.com/mikedh/trimesh

o link1.STL
v 0.03707801 0.00653785 0.00000000
v 0.03765000 0.00000000 0.00200000
v 0.03765000 0.00000000 0.00000000
v 0.03707801 -0.00653785 0.00200000
v 0.03707801 -0.00653785 0.00000000
v -0.02884157 0.02420095 0.00000000
v 0.03537942 0.01287706 0.00000000
v 0.03707801 0.00653785 0.00200000
v 0.03537942 -0.01287706 0.00200000
v 0.03537942 -0.01287706 0.00000000
v 0.03260586 0.01882500 0.00000000
v 0.03537942 0.01287706 0.00200000
v 0.03260586 -0.01882500 0.00200000
v 0.03260586 -0.01882500 0.00000000
v 0.02884157 0.02420095 0.00000000
v 0.03260586 0.01882500 0.00200000
v 0.02884157 -0.02420095 0.00200000
v 0.02884157 -0.02420095 0.00000000
v 0.02420096 0.02884157 0.00000000
v 0.02884157 0.02420095 0.00200000
v 0.02420096 -0.02884157 0.00200000
v 0.02420096 -0.02884157 0.00000000
v -0.03707801 0.00653785 0.00000000
v -0.03537943 0.01287706 0.00000000
v -0.03260586 0.01882500 0.00000000
v -0.03765000 0.00000000 0.00000000
v 0.01882500 0.03260586 0.00000000
v 0.02420096 0.02884157 0.00200000
v -0.01882500 0.03260586 0.00000000
v -0.02420095 0.02884157 0.00000000
v 0.01882500 -0.03260586 0.00200000
v 0.01882500 -0.03260586 0.00000000
v 0.01287706 0.03537943 0.00000000
v 0.01882500 0.03260586 0.00200000
v 0.01287706 -0.03537943 0.00200000
v 0.01287706 -0.03537943 0.00000000
v 0.00653785 0.03707801 0.00000000
v 0.01287706 0.03537943 0.00200000
v 0.00653785 -0.03707801 0.00200000
v 0.00653785 -0.03707801 0.00000000
v 0.00000000 0.03765000 0.00000000
v 0.00653785 0.03707801 0.00200000
v -0.01287706 0.03537943 0.00000000
v 0.00000000 -0.03765000 0.00200000
v 0.00000000 -0.03765000 0.00000000
v -0.00653785 0.03707801 0.00000000
v 0.00000000 0.03765000 0.00200000
v -0.00653785 -0.03707801 0.00200000
v -0.00653785 -0.03707801 0.00000000
v -0.00653785 0.03707801 0.00200000
v -0.01287706 -0.03537943 0.00200000
v -0.01287706 -0.03537943 0.00000000
v -0.02884157 -0.02420095 0.00000000
v -0.03260586 -0.01882500 0.00000000
v -0.03537943 -0.01287706 0.00000000
v -0.03707801 -0.00653785 0.00000000
v -0.01287706 0.03537943 0.00200000
v -0.01882500 -0.03260586 0.00200000
v -0.01882500 -0.03260586 0.00000000
v -0.02420095 -0.02884157 0.00000000
v -0.01882500 0.03260586 0.00200000
v -0.02420095 -0.02884157 0.00200000
v -0.02420095 0.02884157 0.00200000
v -0.02884157 -0.02420095 0.00200000
v -0.02884157 0.02420095 0.00200000
v -0.03260586 -0.01882500 0.00200000
v -0.03260586 0.01882500 0.00200000
v -0.03537943 -0.01287706 0.00200000
v -0.03537943 0.01287706 0.00200000
v -0.03707801 -0.00653785 0.00200000
v -0.03707801 0.00653785 0.00200000
v -0.03765000 0.00000000 0.00200000
v 0.03154571 0.00778916 0.00200000
v 0.03026542 0.00608515 0.00200000
v 0.03026542 -0.00608515 0.00200000
v 0.03200000 0.00987157 0.00200000
v 0.03154571 0.01195399 0.00200000
v 0.03154571 -0.00778916 0.00200000
v 0.03200000 -0.00987157 0.00200000
v 0.03026542 0.01365800 0.00200000
v 0.03154571 -0.01195399 0.00200000
v 0.02839175 0.01467397 0.00200000
v 0.02500000 0.02070000 0.00200000
v 0.02500000 0.01918823 0.00200000
v 0.02542702 0.01723075 0.00200000
v 0.02663051 0.01562898 0.00200000
v 0.02839175 -0.01467397 0.00200000
v 0.02663051 -0.01562898 0.00200000
v 0.02500000 -0.01918823 0.00200000
v 0.03026542 -0.01365800 0.00200000
v 0.03200000 0.00987157 0.00400000
v 0.03154571 0.00778916 0.00400000
v 0.03200000 -0.00987157 0.00400000
v 0.03154571 -0.01195399 0.00400000
v 0.03154571 0.01195399 0.00400000
v 0.03026542 0.00608515 0.00400000
v 0.03154571 -0.00778916 0.00400000
v 0.03026542 -0.01365800 0.00400000
v 0.03026542 0.01365800 0.00400000
v 0.02839175 0.00506918 0.00200000
v 0.02839175 0.00506918 0.00400000
v 0.02839175 -0.00506918 0.00200000
v 0.03026542 -0.00608515 0.00400000
v 0.02839175 -0.01467397 0.00400000
v -0.02500000 0.02070000 0.00200000
v 0.02500000 -0.02070000 0.00200000
v 0.02663051 0.01562898 0.00400000
v 0.02839175 0.01467397 0.00400000
v 0.02663051 0.00411416 0.00200000
v 0.02542702 0.00251239 0.00200000
v 0.02500000 0.00055492 0.00200000
v 0.02500000 -0.00055492 0.00200000
v 0.02542702 -0.00251239 0.00200000
v 0.02663051 -0.00411416 0.00200000
v 0.02663051 -0.00411416 0.00400000
v 0.02839175 -0.00506918 0.00400000
v 0.02542702 0.01723075 0.00400000
v 0.02663051 0.00411416 0.00400000
v 0.02542702 -0.00251239 0.00400000
v 0.02542702 -0.01723075 0.00200000
v 0.02663051 -0.01562898 0.00400000
v 0.02500000 0.01918823 0.00400000
v 0.02542702 0.00251239 0.00400000
v 0.02500000 -0.00055492 0.00400000
v 0.02542702 -0.01723075 0.00400000
v 0.02500000 0.01987157 0.00400000
v 0.02500000 0.02370000 0.00782842
v 0.02500000 0.02570000 0.00700000
v -0.02500000 0.02570000 0.00700000
v 0.02500000 0.00055492 0.00400000
v 0.02500000 -0.01918823 0.00400000
v -0.02500000 -0.02070000 0.00200000
v 0.02500000 -0.01987157 0.00400000
v 0.02500000 -0.02570000 0.00700000
v -0.02500000 0.01918823 0.00200000
v -0.02500000 0.01987157 0.00400000
v -0.02500000 0.01918823 0.00400000
v -0.02663051 0.01562898 0.00200000
v -0.02542702 0.01723075 0.00200000
v -0.02542702 0.01723075 0.00400000
v -0.02839175 -0.00506918 0.00200000
v -0.02500000 -0.00055492 0.00200000
v -0.02500000 0.00055492 0.00200000
v -0.02542702 0.00251239 0.00200000
v -0.02500000 -0.00055492 0.00400000
v -0.02500000 0.00055492 0.00400000
v -0.02542702 -0.00251239 0.00200000
v -0.02542702 -0.00251239 0.00400000
v -0.02500000 -0.01918823 0.00200000
v -0.02542702 -0.01723075 0.00200000
v -0.02500000 -0.01987157 0.00400000
v -0.02500000 -0.01918823 0.00400000
v -0.02500000 -0.02570000 0.00700000
v -0.02500000 -0.02370000 0.00782842
v -0.02663051 0.01562898 0.00400000
v -0.02663051 0.00411416 0.00200000
v -0.02542702 0.00251239 0.00400000
v -0.02663051 -0.00411416 0.00200000
v -0.02663051 -0.00411416 0.00400000
v -0.02663051 -0.01562898 0.00200000
v -0.02542702 -0.01723075 0.00400000
v -0.02839175 0.01467397 0.00200000
v -0.02839175 0.01467397 0.00400000
v -0.02839175 0.00506918 0.00200000
v -0.02663051 0.00411416 0.00400000
v -0.02839175 -0.00506918 0.00400000
v -0.02839175 -0.01467397 0.00200000
v -0.02663051 -0.01562898 0.00400000
v -0.03026542 0.01365800 0.00200000
v -0.03026542 0.00608515 0.00200000
v -0.02839175 0.00506918 0.00400000
v -0.03026542 0.00608515 0.00400000
v -0.03026542 -0.00608515 0.00200000
v -0.03026542 -0.01365800 0.00200000
v -0.02839175 -0.01467397 0.00400000
v -0.03026542 -0.01365800 0.00400000
v -0.03154572 0.01195399 0.00200000
v -0.03026542 0.01365800 0.00400000
v -0.03154572 0.00778916 0.00200000
v -0.03154572 0.00778916 0.00400000
v -0.03154572 -0.00778916 0.00200000
v -0.03026542 -0.00608515 0.00400000
v -0.03154572 -0.01195399 0.00200000
v -0.03154572 -0.01195399 0.00400000
v -0.03200000 0.00987157 0.00200000
v -0.03154572 0.01195399 0.00400000
v -0.03200000 0.00987157 0.00400000
v -0.03200000 -0.00987157 0.00200000
v -0.03154572 -0.00778916 0.00400000
v -0.03200000 -0.00987157 0.00400000
v -0.02500000 0.02370000 0.00782842
v 0.02500000 -0.02370000 0.00782842
v 0.02500000 0.02370000 0.00820204
v 0.02500000 0.02570000 0.00820204
v 0.02500000 -0.02570000 0.00820204
v -0.02500000 0.02570000 0.00820204
v 0.02100000 0.02570000 0.01620204
v 0.02314925 0.02570000 0.01399771
v 0.02452608 0.02570000 0.01124404
v 0.01884002 0.02570000 0.01842150
v -0.02500000 -0.02370000 0.00820204
v -0.02500000 -0.02570000 0.00820204
v 0.02452608 -0.02570000 0.01124404
v 0.02314925 -0.02570000 0.01399771
v 0.02100000 -0.02570000 0.01620204
v 0.01884002 -0.02570000 0.01842150
v 0.01676892 0.02370000 0.00984542
v 0.01611129 0.02370000 0.00886870
v 0.01512841 0.02370000 0.00822031
v 0.01399999 0.02370000 0.00800000
v -0.01400003 0.02370000 0.00799999
v 0.02500000 -0.02370000 0.00820204
v -0.01400001 -0.02370000 0.00800000
v 0.01399997 -0.02370000 0.00800000
v 0.01512841 -0.02370000 0.00822031
v 0.01611129 -0.02370000 0.00886870
v 0.01676892 -0.02370000 0.00984542
v -0.02500000 0.02370000 0.00820204
v -0.01659808 0.02370000 0.00949999
v -0.01550001 0.02370000 0.00840192
v -0.01700000 -0.02370000 0.01099999
v -0.01659808 -0.02370000 0.00949999
v -0.02100000 -0.02370000 0.01620204
v -0.01885075 -0.02370000 0.01840638
v -0.01550001 -0.02370000 0.00840192
v 0.02452608 0.02370000 0.01124404
v 0.02452608 -0.02370000 0.01124404
v -0.02452608 0.02570000 0.01124404
v -0.02452608 0.02370000 0.01124404
v -0.01700000 0.02370000 0.01099999
v -0.02452608 -0.02370000 0.01124404
v -0.02314925 -0.02370000 0.01399771
v -0.02452608 -0.02570000 0.01124404
v 0.01700000 0.02370000 0.01100000
v 0.02314925 0.02370000 0.01399771
v 0.01700000 -0.02370000 0.01100000
v 0.02100000 -0.02370000 0.01620204
v 0.02314925 -0.02370000 0.01399771
v -0.01700000 0.02370000 0.02420203
v -0.01747392 0.02370000 0.02116005
v -0.01885075 0.02370000 0.01840638
v -0.02100000 0.02370000 0.01620204
v -0.02314925 0.02370000 0.01399771
v -0.01747392 -0.02370000 0.02116005
v -0.01700000 -0.02370000 0.02420203
v -0.01700000 0.02370000 0.04145009
v 0.01700000 -0.02370000 0.02420204
v 0.01700000 -0.02370000 0.04145009
v 0.01700000 0.02370000 0.02420204
v 0.01746270 0.02370000 0.02119540
v 0.01884002 0.02370000 0.01842150
v 0.02100000 0.02370000 0.01620204
v 0.01746270 -0.02370000 0.02119540
v 0.01884002 -0.02370000 0.01842150
v -0.02314925 0.02570000 0.01399771
v -0.02314925 -0.02570000 0.01399771
v -0.02100000 0.02570000 0.01620204
v -0.02100000 -0.02570000 0.01620204
v -0.01885075 0.02570000 0.01840638
v -0.01885075 -0.02570000 0.01840638
v -0.01747392 0.02570000 0.02116005
v -0.01747392 -0.02570000 0.02116005
v 0.01746270 0.02570000 0.02119540
v 0.01746270 -0.02570000 0.02119540
v -0.01700000 0.02570000 0.02420204
v -0.00579954 0.02570000 0.03901985
v -0.00196836 0.02570000 0.03811434
v -0.00579954 -0.02570000 0.03901985
v -0.01700000 -0.02570000 0.02420204
v 0.00196836 -0.02570000 0.03811434
v -0.00196836 -0.02570000 0.03811434
v 0.00579954 0.02570000 0.03901985
v 0.01700000 0.02570000 0.02420204
v 0.00196836 0.02570000 0.03811434
v 0.01700000 -0.02570000 0.02420204
v 0.00579954 -0.02570000 0.03901985
v -0.01700000 -0.02570000 0.04145009
v -0.01700000 -0.02370000 0.04145009
v 0.00931971 0.02570000 0.04078230
v 0.01234010 0.02570000 0.04330719
v 0.01700000 0.02570000 0.04145009
v 0.01700000 0.02370000 0.04145009
v 0.01700000 -0.02570000 0.04145009
v 0.01234010 -0.02570000 0.04330719
v 0.00931971 -0.02570000 0.04078230
v -0.01700000 0.02570000 0.04145009
v -0.01234010 0.02570000 0.04330719
v -0.00931971 0.02570000 0.04078230
v -0.00931971 -0.02570000 0.04078230
v -0.01234010 -0.02570000 0.04330719
v 0.00196836 0.02370000 0.03811434
v -0.00196836 0.02370000 0.03811434
v 0.00185009 0.02370000 0.04213232
v 0.00579954 0.02370000 0.03901985
v -0.00185009 0.02370000 0.04213232
v 0.00185009 -0.02370000 0.04213232
v -0.00196836 -0.02370000 0.03811434
v 0.00196836 -0.02370000 0.03811434
v 0.00540040 -0.02370000 0.04317478
v 0.00579954 -0.02370000 0.03901985
v -0.00579954 0.02370000 0.03901985
v -0.00540040 0.02370000 0.04317478
v -0.00185009 -0.02370000 0.04213232
v -0.00579954 -0.02370000 0.03901985
v 0.00540040 0.02370000 0.04317478
v 0.00931971 0.02370000 0.04078230
v 0.00931971 -0.02370000 0.04078230
v -0.00931971 0.02370000 0.04078230
v -0.00540040 -0.02370000 0.04317478
v -0.00931971 -0.02370000 0.04078230
v 0.00851319 0.02370000 0.04517526
v 0.01234010 0.02370000 0.04330719
v 0.01234010 -0.02370000 0.04330719
v 0.00851319 -0.02370000 0.04517526
v -0.01234010 0.02370000 0.04330719
v -0.00851319 0.02370000 0.04517526
v -0.00851319 -0.02370000 0.04517526
v -0.01234010 -0.02370000 0.04330719
v 0.01700000 0.02370000 0.06700002
v 0.01700001 -0.02370000 0.06700003
v 0.01671310 0.02370000 0.04266128
v 0.01671310 -0.02370000 0.04266128
v 0.01671310 -0.02570000 0.04266128
v -0.01700000 0.02370000 0.06700002
v -0.01671310 0.02370000 0.04266128
v -0.01671310 0.02570000 0.04266128
v -0.01700000 -0.02370000 0.06700002
v -0.01671310 -0.02370000 0.04266128
v 0.01671310 0.02570000 0.04266128
v -0.01671310 -0.02570000 0.04266128
v -0.00185009 0.02780000 0.04213232
v 0.00185009 0.02780000 0.04213232
v 0.00540040 0.02780000 0.04317478
v 0.00540040 0.02780000 0.06682521
v 0.00851319 0.02780000 0.06482475
v 0.01093630 0.02780000 0.06202834
v 0.01247341 0.02780000 0.05866252
v 0.01300000 0.02780000 0.05500000
v 0.01247341 0.02780000 0.05133748
v 0.01093630 0.02780000 0.04797167
v 0.00851319 0.02780000 0.04517526
v 0.00185009 -0.02780000 0.04213232
v -0.00185009 -0.02780000 0.04213232
v 0.00540040 -0.02780000 0.04317478
v -0.00540040 -0.02780000 0.06682521
v -0.00540040 0.02780000 0.04317478
v -0.00540040 -0.02780000 0.04317478
v -0.00851319 -0.02780000 0.06482475
v -0.01093630 -0.02780000 0.06202834
v -0.01247341 -0.02780000 0.05866252
v -0.01300000 -0.02780000 0.05500000
v -0.01247341 -0.02780000 0.05133748
v -0.01093630 -0.02780000 0.04797167
v -0.00851319 -0.02780000 0.04517526
v 0.01341783 0.02570000 0.04400191
v 0.01588223 0.02570000 0.04363791
v 0.01588223 0.02370000 0.04363791
v 0.01588223 -0.02370000 0.04363791
v 0.01588223 -0.02570000 0.04363791
v 0.01469452 -0.02570000 0.04412111
v 0.01341783 -0.02570000 0.04400191
v -0.01588223 0.02570000 0.04363791
v -0.01469452 0.02570000 0.04412111
v -0.01341783 0.02570000 0.04400191
v -0.01588223 0.02370000 0.04363791
v -0.01588223 -0.02370000 0.04363791
v -0.01588223 -0.02570000 0.04363791
v -0.01341783 -0.02570000 0.04400191
v 0.00851319 -0.02780000 0.04517526
v 0.00540040 -0.02780000 0.06682521
v 0.00185009 -0.02780000 0.06786768
v -0.00185009 -0.02780000 0.06786768
v -0.00851319 0.02780000 0.04517526
v 0.00185009 0.02780000 0.06786768
v -0.00540040 0.02780000 0.06682521
v -0.00185009 0.02780000 0.06786768
v 0.01341783 0.02370000 0.04400191
v 0.01341783 -0.02370000 0.04400191
v 0.01093630 -0.02370000 0.04797167
v -0.01093630 0.02370000 0.04797167
v -0.01341783 0.02370000 0.04400191
v -0.01341783 -0.02370000 0.04400191
v 0.01469452 0.02570000 0.04412111
v 0.01469452 0.02370000 0.04412111
v 0.01469452 -0.02370000 0.04412111
v -0.01469452 0.02370000 0.04412111
v -0.01469452 -0.02370000 0.04412111
v -0.01469452 -0.02570000 0.04412111
v 0.01093630 0.02370000 0.04797167
v 0.01247341 -0.02370000 0.05133748
v -0.01300000 0.02370000 0.05500000
v -0.01247341 0.02370000 0.05133748
v -0.01093630 -0.02370000 0.04797167
v 0.01247341 0.02370000 0.05133748
v 0.01300000 0.02370000 0.05500000
v 0.01300000 -0.02370000 0.05500000
v -0.01247341 -0.02370000 0.05133748
v -0.01300000 -0.02370000 0.05500000
v 0.01093630 -0.02780000 0.04797167
v -0.01093630 0.02780000 0.04797167
v 0.01247341 -0.02780000 0.05133748
v -0.01247341 0.02780000 0.05133748
v -0.00851319 0.02780000 0.06482475
v -0.01093630 0.02780000 0.06202834
v 0.01300000 -0.02780000 0.05500000
v -0.01300000 0.02780000 0.05500000
v 0.01247341 0.02370000 0.05866252
v 0.01247341 -0.02370000 0.05866252
v 0.01247341 -0.02780000 0.05866252
v -0.01247341 0.02370000 0.05866252
v -0.01247341 0.02780000 0.05866252
v -0.01247341 -0.02370000 0.05866252
v 0.01093630 0.02370000 0.06202834
v 0.01093630 -0.02370000 0.06202834
v 0.01093630 -0.02780000 0.06202834
v -0.01093630 0.02370000 0.06202834
v -0.01093630 -0.02370000 0.06202834
v 0.00851319 0.02370000 0.06482475
v 0.01400000 0.02370000 0.07000001
v 0.01611130 0.02370000 0.06913130
v 0.01512843 0.02370000 0.06977969
v 0.01676893 -0.02370000 0.06815459
v 0.01512843 -0.02370000 0.06977969
v 0.00851319 -0.02370000 0.06482475
v 0.00851319 -0.02780000 0.06482475
v -0.00851319 0.02370000 0.06482475
v -0.01550000 0.02370000 0.06959808
v -0.01659808 0.02370000 0.06850001
v -0.01550000 -0.02370000 0.06959808
v -0.01400000 -0.02370000 0.07000001
v -0.00851319 -0.02370000 0.06482475
v 0.00540040 0.02370000 0.06682521
v 0.01400000 -0.02370000 0.07000001
v 0.00540040 -0.02370000 0.06682521
v -0.00540040 0.02370000 0.06682521
v -0.01400000 0.02370000 0.07000001
v -0.00540040 -0.02370000 0.06682521
v 0.00185009 0.02370000 0.06786768
v 0.00185009 -0.02370000 0.06786768
v -0.00185009 0.02370000 0.06786768
v -0.00185009 -0.02370000 0.06786768
v 0.01676893 0.02370000 0.06815459
v -0.01659808 -0.02370000 0.06850001
v 0.01611130 -0.02370000 0.06913130
f 1 2 3
f 2 4 3
f 4 5 3
f 6 1 3
f 5 6 3
f 7 8 1
f 8 2 1
f 6 7 1
f 4 9 5
f 9 10 5
f 10 6 5
f 11 12 7
f 12 8 7
f 6 11 7
f 9 13 10
f 13 14 10
f 14 6 10
f 15 16 11
f 16 12 11
f 6 15 11
f 13 17 14
f 17 18 14
f 18 6 14
f 19 20 15
f 20 16 15
f 6 19 15
f 17 21 18
f 21 22 18
f 23 24 18
f 24 25 18
f 25 6 18
f 26 23 18
f 22 26 18
f 27 28 19
f 28 20 19
f 29 27 19
f 30 29 19
f 6 30 19
f 21 31 22
f 31 32 22
f 32 26 22
f 33 34 27
f 34 28 27
f 29 33 27
f 31 35 32
f 35 36 32
f 36 26 32
f 37 38 33
f 38 34 33
f 29 37 33
f 35 39 36
f 39 40 36
f 40 26 36
f 41 42 37
f 42 38 37
f 43 41 37
f 29 43 37
f 39 44 40
f 44 45 40
f 45 26 40
f 46 47 41
f 47 42 41
f 43 46 41
f 44 48 45
f 48 49 45
f 49 26 45
f 43 50 46
f 50 47 46
f 48 51 49
f 51 52 49
f 52 53 49
f 53 54 49
f 54 55 49
f 56 26 49
f 55 56 49
f 29 57 43
f 57 50 43
f 51 58 52
f 58 59 52
f 59 60 52
f 60 53 52
f 30 61 29
f 61 57 29
f 58 62 59
f 62 60 59
f 6 63 30
f 63 61 30
f 62 64 60
f 64 53 60
f 25 65 6
f 65 63 6
f 64 66 53
f 66 54 53
f 24 67 25
f 67 65 25
f 66 68 54
f 68 55 54
f 23 69 24
f 69 67 24
f 68 70 55
f 70 56 55
f 26 71 23
f 71 69 23
f 70 72 56
f 72 26 56
f 72 71 26
f 8 73 2
f 73 74 2
f 74 75 2
f 75 4 2
f 76 73 8
f 77 76 8
f 12 77 8
f 75 78 4
f 78 79 4
f 79 9 4
f 80 77 12
f 16 80 12
f 79 81 9
f 81 13 9
f 82 80 16
f 83 84 16
f 20 83 16
f 84 85 16
f 85 86 16
f 86 82 16
f 87 88 13
f 88 89 13
f 89 17 13
f 81 90 13
f 90 87 13
f 77 91 76
f 91 92 76
f 92 73 76
f 78 93 79
f 93 94 79
f 94 81 79
f 80 95 77
f 95 91 77
f 92 96 73
f 96 74 73
f 75 97 78
f 97 93 78
f 94 98 81
f 98 90 81
f 82 99 80
f 99 95 80
f 100 75 74
f 96 101 74
f 101 100 74
f 100 102 75
f 102 103 75
f 103 97 75
f 98 104 90
f 104 87 90
f 105 83 20
f 28 105 20
f 89 106 17
f 106 21 17
f 86 107 82
f 107 108 82
f 108 99 82
f 109 110 100
f 110 111 100
f 111 112 100
f 112 113 100
f 113 114 100
f 114 102 100
f 101 109 100
f 114 115 102
f 115 116 102
f 116 103 102
f 104 88 87
f 85 117 86
f 117 107 86
f 118 110 109
f 101 118 109
f 113 119 114
f 119 115 114
f 120 89 88
f 121 120 88
f 104 121 88
f 84 122 85
f 122 117 85
f 123 111 110
f 118 123 110
f 112 124 113
f 124 119 113
f 125 89 120
f 121 125 120
f 126 84 83
f 127 126 83
f 128 127 83
f 129 128 83
f 105 129 83
f 126 122 84
f 123 130 111
f 130 112 111
f 130 124 112
f 125 131 89
f 131 106 89
f 58 51 106
f 51 48 106
f 48 44 106
f 44 39 106
f 39 35 106
f 35 31 106
f 132 64 106
f 64 62 106
f 62 58 106
f 31 21 106
f 133 134 106
f 131 133 106
f 134 132 106
f 34 105 28
f 38 105 34
f 42 105 38
f 47 105 42
f 50 105 47
f 57 105 50
f 61 105 57
f 63 105 61
f 65 105 63
f 65 135 105
f 136 129 105
f 137 136 105
f 135 137 105
f 138 139 135
f 67 138 135
f 65 67 135
f 140 137 135
f 139 140 135
f 141 142 143
f 144 141 143
f 145 146 143
f 142 145 143
f 146 144 143
f 141 147 142
f 148 145 142
f 147 148 142
f 66 132 149
f 150 66 149
f 151 152 149
f 132 151 149
f 152 150 149
f 66 64 132
f 134 153 132
f 154 151 132
f 153 154 132
f 155 140 139
f 138 155 139
f 156 141 144
f 146 157 144
f 157 156 144
f 141 158 147
f 159 148 147
f 158 159 147
f 160 66 150
f 152 161 150
f 161 160 150
f 67 162 138
f 163 155 138
f 162 163 138
f 164 141 156
f 157 165 156
f 165 164 156
f 166 159 158
f 141 166 158
f 167 66 160
f 161 168 160
f 168 167 160
f 67 169 162
f 169 163 162
f 170 141 164
f 165 171 164
f 171 172 164
f 172 170 164
f 170 173 141
f 173 166 141
f 174 66 167
f 168 175 167
f 175 176 167
f 176 174 167
f 67 177 169
f 177 178 169
f 178 163 169
f 72 173 170
f 71 72 170
f 179 71 170
f 172 180 170
f 180 179 170
f 72 181 173
f 181 182 173
f 182 166 173
f 183 68 174
f 68 66 174
f 176 184 174
f 184 183 174
f 69 185 177
f 67 69 177
f 185 186 177
f 186 178 177
f 185 71 179
f 180 187 179
f 187 185 179
f 70 188 181
f 72 70 181
f 188 189 181
f 189 182 181
f 188 70 183
f 70 68 183
f 184 190 183
f 190 188 183
f 69 71 185
f 187 186 185
f 190 189 188
f 96 92 91
f 95 96 91
f 97 104 93
f 104 94 93
f 99 96 95
f 103 116 97
f 116 104 97
f 104 98 94
f 101 96 99
f 108 101 99
f 118 101 108
f 107 118 108
f 115 104 116
f 115 121 104
f 136 118 107
f 117 136 107
f 136 123 118
f 119 131 115
f 131 125 115
f 125 121 115
f 122 136 117
f 136 137 123
f 137 157 123
f 157 130 123
f 124 145 119
f 145 148 119
f 148 131 119
f 191 136 126
f 127 191 126
f 136 122 126
f 157 146 130
f 146 124 130
f 146 145 124
f 148 133 131
f 192 134 133
f 152 151 133
f 148 159 133
f 159 168 133
f 168 161 133
f 161 152 133
f 151 192 133
f 191 129 136
f 165 157 137
f 140 165 137
f 154 192 151
f 155 165 140
f 163 165 155
f 163 171 165
f 166 175 159
f 175 168 159
f 178 186 163
f 180 171 163
f 186 180 163
f 180 172 171
f 182 176 166
f 176 175 166
f 189 190 182
f 190 184 182
f 184 176 182
f 187 180 186
f 193 127 128
f 194 193 128
f 129 194 128
f 192 195 134
f 195 153 134
f 191 196 129
f 197 198 129
f 198 199 129
f 199 194 129
f 200 197 129
f 196 200 129
f 201 154 153
f 202 201 153
f 195 203 153
f 203 204 153
f 204 205 153
f 205 206 153
f 206 202 153
f 193 207 127
f 207 208 127
f 208 209 127
f 209 210 127
f 210 211 127
f 211 191 127
f 212 195 192
f 154 213 192
f 213 214 192
f 214 215 192
f 215 216 192
f 216 217 192
f 217 212 192
f 218 196 191
f 219 218 191
f 211 220 191
f 220 219 191
f 221 222 154
f 201 223 154
f 223 224 154
f 224 221 154
f 222 225 154
f 225 213 154
f 213 220 211
f 210 214 211
f 214 213 211
f 215 214 210
f 209 215 210
f 225 220 213
f 199 193 194
f 199 226 193
f 226 207 193
f 217 227 212
f 227 195 212
f 227 203 195
f 228 200 196
f 229 228 196
f 218 229 196
f 219 230 218
f 230 229 218
f 231 232 201
f 232 223 201
f 233 231 201
f 202 233 201
f 206 233 202
f 208 215 209
f 208 216 215
f 225 222 220
f 222 219 220
f 207 216 208
f 207 217 216
f 222 221 219
f 221 230 219
f 234 217 207
f 226 235 207
f 235 234 207
f 236 237 217
f 237 238 217
f 238 227 217
f 234 236 217
f 221 239 230
f 239 240 230
f 240 241 230
f 241 242 230
f 242 243 230
f 243 229 230
f 224 244 221
f 244 245 221
f 246 239 221
f 245 246 221
f 247 236 234
f 248 247 234
f 249 248 234
f 250 249 234
f 251 250 234
f 235 252 234
f 252 251 234
f 247 253 236
f 253 254 236
f 254 237 236
f 198 226 199
f 198 235 226
f 238 203 227
f 238 204 203
f 255 200 228
f 243 255 228
f 229 243 228
f 256 232 231
f 233 256 231
f 206 256 233
f 197 235 198
f 197 252 235
f 237 204 238
f 237 205 204
f 257 200 255
f 242 257 255
f 243 242 255
f 258 223 232
f 256 258 232
f 206 258 256
f 200 251 197
f 251 252 197
f 254 206 237
f 206 205 237
f 259 200 257
f 242 259 257
f 241 259 242
f 258 224 223
f 206 260 258
f 260 224 258
f 261 200 259
f 241 261 259
f 240 261 241
f 260 244 224
f 206 262 260
f 262 244 260
f 261 263 200
f 263 250 200
f 250 251 200
f 253 264 254
f 264 206 254
f 264 262 206
f 265 266 261
f 266 267 261
f 267 263 261
f 240 265 261
f 239 265 240
f 262 245 244
f 268 269 262
f 264 270 262
f 270 271 262
f 271 268 262
f 269 245 262
f 272 273 263
f 267 274 263
f 274 272 263
f 273 249 263
f 249 250 263
f 247 275 253
f 275 264 253
f 275 276 264
f 276 270 264
f 246 265 239
f 269 277 245
f 277 278 245
f 278 246 245
f 272 279 273
f 279 280 273
f 280 281 273
f 281 249 273
f 281 282 249
f 282 248 249
f 248 275 247
f 248 283 275
f 284 285 275
f 285 276 275
f 283 284 275
f 286 287 265
f 287 288 265
f 288 266 265
f 246 286 265
f 268 289 269
f 289 290 269
f 290 277 269
f 291 272 274
f 292 291 274
f 267 292 274
f 293 294 291
f 295 293 291
f 292 295 291
f 294 272 291
f 296 297 298
f 299 296 298
f 300 299 298
f 270 300 298
f 271 270 298
f 297 271 298
f 276 300 270
f 301 292 267
f 266 301 267
f 302 295 292
f 301 302 292
f 303 304 297
f 296 303 297
f 268 271 297
f 304 268 297
f 294 279 272
f 305 306 294
f 293 305 294
f 306 279 294
f 307 299 300
f 276 307 300
f 285 307 276
f 308 301 266
f 288 308 266
f 308 302 301
f 309 310 304
f 303 309 304
f 289 268 304
f 310 289 304
f 306 280 279
f 311 312 306
f 305 311 306
f 312 280 306
f 313 314 307
f 314 299 307
f 285 313 307
f 284 313 285
f 315 308 288
f 287 315 288
f 316 302 308
f 315 316 308
f 317 318 310
f 309 317 310
f 290 289 310
f 318 290 310
f 319 320 282
f 320 248 282
f 321 319 282
f 281 321 282
f 320 322 248
f 323 283 248
f 322 323 248
f 278 324 246
f 324 325 246
f 326 286 246
f 325 326 246
f 327 324 278
f 328 327 278
f 277 328 278
f 280 329 281
f 329 321 281
f 323 284 283
f 326 287 286
f 290 330 277
f 330 328 277
f 295 331 332
f 293 295 332
f 333 293 332
f 331 334 332
f 334 335 332
f 335 336 332
f 336 337 332
f 337 338 332
f 338 339 332
f 339 340 332
f 340 341 332
f 341 333 332
f 333 305 293
f 299 342 296
f 342 343 296
f 343 303 296
f 299 344 342
f 344 345 342
f 345 343 342
f 302 346 331
f 295 302 331
f 346 334 331
f 343 347 303
f 347 309 303
f 345 348 343
f 348 349 343
f 349 350 343
f 350 351 343
f 351 352 343
f 352 353 343
f 353 354 343
f 354 347 343
f 355 356 329
f 280 355 329
f 356 321 329
f 357 319 321
f 356 357 321
f 320 358 322
f 358 323 322
f 358 359 323
f 359 360 323
f 361 284 323
f 360 361 323
f 362 363 326
f 364 287 326
f 363 364 326
f 325 365 326
f 365 362 326
f 324 365 325
f 366 327 328
f 330 367 328
f 367 366 328
f 368 367 330
f 290 368 330
f 341 305 333
f 341 311 305
f 314 344 299
f 314 369 344
f 370 371 344
f 369 370 344
f 371 372 344
f 372 345 344
f 316 373 346
f 302 316 346
f 374 334 346
f 373 375 346
f 375 376 346
f 376 374 346
f 347 354 309
f 354 317 309
f 377 355 280
f 312 377 280
f 311 377 312
f 378 379 313
f 379 314 313
f 361 378 313
f 284 361 313
f 364 315 287
f 380 316 315
f 381 380 315
f 364 381 315
f 317 382 318
f 382 290 318
f 382 368 290
f 355 383 356
f 383 357 356
f 384 319 357
f 383 384 357
f 320 385 358
f 385 359 358
f 385 360 359
f 365 386 362
f 386 363 362
f 324 386 365
f 387 327 366
f 367 388 366
f 388 387 366
f 368 388 367
f 384 383 355
f 377 384 355
f 311 389 377
f 389 384 377
f 385 390 378
f 390 379 378
f 360 385 378
f 361 360 378
f 363 381 364
f 386 324 381
f 324 391 381
f 392 380 381
f 391 392 381
f 363 386 381
f 393 387 382
f 317 393 382
f 387 368 382
f 387 388 368
f 389 394 384
f 394 395 384
f 395 319 384
f 320 396 385
f 396 390 385
f 393 397 387
f 397 398 387
f 398 327 387
f 340 311 341
f 340 389 311
f 379 369 314
f 379 399 369
f 399 370 369
f 380 400 373
f 316 380 373
f 400 375 373
f 354 353 317
f 353 393 317
f 339 389 340
f 339 394 389
f 390 399 379
f 390 401 399
f 401 370 399
f 392 402 400
f 380 392 400
f 403 375 400
f 404 403 400
f 402 404 400
f 353 352 393
f 352 397 393
f 338 394 339
f 338 395 394
f 396 401 390
f 396 405 401
f 405 370 401
f 391 406 402
f 392 391 402
f 406 404 402
f 352 351 397
f 351 398 397
f 337 395 338
f 407 319 395
f 337 407 395
f 320 408 396
f 408 405 396
f 408 409 405
f 409 370 405
f 410 411 406
f 391 410 406
f 411 404 406
f 324 410 391
f 412 327 398
f 351 350 398
f 350 412 398
f 336 407 337
f 413 319 407
f 336 413 407
f 320 414 408
f 414 409 408
f 414 415 409
f 415 370 409
f 416 404 411
f 410 416 411
f 324 416 410
f 417 327 412
f 350 349 412
f 349 417 412
f 335 413 336
f 418 419 413
f 420 319 413
f 421 420 413
f 419 421 413
f 335 418 413
f 320 422 414
f 422 423 414
f 423 424 414
f 424 415 414
f 424 425 415
f 425 370 415
f 426 403 404
f 416 426 404
f 427 426 416
f 428 427 416
f 324 428 416
f 429 327 417
f 430 429 417
f 431 430 417
f 349 348 417
f 348 431 417
f 334 418 335
f 432 419 418
f 334 432 418
f 423 433 424
f 433 434 424
f 434 425 424
f 434 370 425
f 435 375 403
f 426 435 403
f 436 435 426
f 427 436 426
f 437 430 431
f 348 345 431
f 345 437 431
f 374 432 334
f 438 419 432
f 374 438 432
f 433 439 434
f 439 370 434
f 439 371 370
f 440 376 375
f 435 440 375
f 436 440 435
f 441 430 437
f 345 372 437
f 372 441 437
f 420 442 319
f 422 320 319
f 442 422 319
f 327 443 324
f 443 428 324
f 429 443 327
f 376 438 374
f 440 436 438
f 436 419 438
f 376 440 438
f 430 441 439
f 433 430 439
f 441 371 439
f 441 372 371
f 420 422 442
f 444 423 422
f 420 444 422
f 443 429 428
f 429 427 428
f 421 444 420
f 421 423 444
f 429 430 427
f 430 436 427
f 419 433 421
f 433 423 421
f 436 430 419
f 430 433 419

