# https://github.com/mikedh/trimesh

o link4.STL
v 0.00050001 0.00000000 -0.02200000
v 0.00859999 0.00441581 -0.02155228
v 0.00859999 0.00000000 -0.02200000
v 0.00859999 -0.00441581 -0.02155228
v 0.00960000 -0.00421509 -0.02057262
v 0.00960000 -0.00000000 -0.02100001
v 0.00050001 0.00451932 -0.02153082
v -0.00000000 0.00000000 -0.02150001
v -0.00000000 -0.00441660 -0.02104147
v 0.00050001 -0.00451931 -0.02153082
v 0.00859999 0.00451621 -0.02152087
v 0.00960000 0.00421509 -0.02057262
v 0.00859999 -0.00451621 -0.02152087
v 0.00050001 0.00922396 -0.01997294
v 0.00859999 0.00865188 -0.02022733
v -0.00000000 0.00441660 -0.02104147
v -0.00000000 0.00901433 -0.01951902
v 0.00050001 -0.00922396 -0.01997294
v 0.00859999 -0.00865188 -0.02022733
v 0.00960000 0.00825862 -0.01930790
v 0.00960000 -0.00825862 -0.01930790
v -0.00000000 -0.00000000 0.02150001
v -0.00000000 0.00481242 0.02095450
v -0.00000000 0.00938063 0.01934566
v -0.00000000 0.01347282 0.01675509
v -0.00000000 -0.01688133 0.01331432
v -0.00000000 -0.01347282 0.01675509
v -0.00000000 -0.00938063 0.01934566
v -0.00000000 -0.00481242 0.02095450
v -0.00000000 -0.01943319 0.00919787
v -0.00000000 -0.00901433 -0.01951902
v 0.00960000 -0.01196600 -0.01725732
v 0.00859999 0.00919769 -0.01992543
v 0.00859999 -0.00919769 -0.01992543
v 0.00050001 0.01346054 -0.01740156
v 0.00859999 0.01253581 -0.01807909
v -0.00000000 0.01315462 -0.01700605
v 0.00050001 -0.01346054 -0.01740156
v 0.00859999 -0.01253581 -0.01807909
v 0.00960000 0.01196600 -0.01725732
v -0.00000000 -0.01315462 -0.01700605
v 0.00859999 0.01343653 -0.01737101
v 0.00859999 -0.01343653 -0.01737101
v 0.00050001 0.01701406 -0.01394712
v 0.00859999 0.01460813 -0.01645000
v -0.00000000 0.01662737 -0.01363014
v 0.00050001 -0.01701406 -0.01394712
v 0.00960000 0.01305364 -0.01645000
v 0.00859999 -0.01460813 -0.01645000
v 0.00960000 -0.01305364 -0.01645000
v -0.00000000 -0.01662737 -0.01363014
v 0.01360000 0.01145000 -0.01425000
v 0.01360000 0.01145000 -0.01445000
v 0.01360000 0.01360813 -0.01645000
v 0.01360000 0.01460813 -0.01544999
v 0.01360000 0.01125000 -0.01625000
v 0.01360000 -0.03645000 -0.01645000
v 0.01360000 0.01125000 -0.01445000
v 0.01160000 0.01360813 -0.01645000
v 0.00960000 -0.01460813 -0.01645000
v 0.01160000 0.01460813 -0.01544999
v 0.01360000 -0.03545000 -0.01445000
v 0.01360000 -0.03745000 -0.01544999
v 0.01360000 -0.03525000 -0.01625000
v 0.00960000 -0.03745000 -0.01544999
v 0.00960000 -0.03645000 -0.01645000
v 0.01160000 0.01460813 -0.01645000
v 0.01160000 0.01701406 -0.01394712
v 0.00960000 -0.01701406 -0.01394712
v 0.00960000 -0.02139444 -0.00512619
v 0.00960000 -0.01970419 -0.00978492
v 0.09580001 -0.01630000 -0.01625000
v 0.09560001 0.01690000 -0.01625000
v 0.09580001 0.01670000 -0.01625000
v 0.09580001 0.01670000 -0.01425000
v 0.09580001 -0.01630000 -0.01425000
v 0.09560001 -0.01650000 -0.01625000
v 0.09560001 -0.01650000 -0.01425000
v 0.04810001 -0.01680000 -0.01625000
v 0.04909515 0.01720179 -0.01625000
v 0.09560001 0.01720045 -0.01625000
v 0.09560001 0.01690000 -0.01425000
v 0.09560001 0.01720045 0.01625000
v 0.08904999 0.01720000 -0.00814064
v 0.09155083 0.01720000 -0.00604220
v 0.08271772 0.01720000 -0.00925718
v 0.08598229 0.01720000 -0.00925718
v 0.09318310 0.01720000 -0.00321500
v 0.09375000 0.01720000 0.00000001
v 0.09560001 -0.01680000 -0.01625000
v 0.04909952 -0.01680000 -0.01425000
v 0.09155083 -0.01680000 -0.00604220
v 0.08904999 -0.01680000 -0.00814064
v 0.08598229 -0.01680000 -0.00925718
v 0.08271772 -0.01680000 -0.00925718
v 0.09560001 -0.01680000 0.01625000
v 0.09375000 -0.01680000 0.00000001
v 0.09318310 -0.01680000 -0.00321500
v 0.01410000 -0.03525000 -0.01625000
v 0.04660000 0.01460813 -0.01625000
v 0.04909731 0.01720227 -0.01425000
v 0.07551689 0.01720000 -0.00321500
v 0.07714918 0.01720000 -0.00604220
v 0.07965000 0.01720000 -0.00814064
v 0.04660000 0.01460813 -0.01425000
v 0.04559999 -0.01940000 -0.01625000
v 0.04810001 -0.01680000 -0.01425000
v 0.04559999 -0.01940000 -0.01425000
v 0.01410000 0.01125000 -0.01625000
v 0.01460001 0.01460813 -0.01625000
v 0.02310000 0.01460813 -0.01425000
v 0.04559999 -0.03695000 -0.01625000
v 0.04510000 -0.03745000 -0.01625000
v 0.04559999 -0.03525000 -0.01425000
v 0.04559999 -0.03695000 -0.01425000
v 0.01460001 -0.03745000 -0.01625000
v 0.01410000 -0.03695000 -0.01625000
v 0.04510000 -0.03745000 -0.01425000
v 0.02310000 -0.03745000 -0.01425000
v 0.01410000 0.01410813 -0.01625000
v 0.01460001 0.01460813 -0.01425000
v 0.01410000 0.01410813 -0.01425000
v 0.01460001 -0.03745000 -0.01425000
v 0.01410000 0.01145000 -0.01425000
v 0.01410000 0.01125000 -0.01425000
v 0.01360000 -0.03525000 -0.01445000
v 0.01410000 -0.03525000 -0.01425000
v 0.01410000 -0.03545000 -0.01425000
v 0.01410000 -0.03695000 -0.01425000
v 0.01360000 0.01460813 -0.01425000
v 0.01360000 -0.03745000 -0.01425000
v 0.01160000 0.01460813 0.01544998
v 0.01360000 -0.03745000 0.01424999
v 0.00960000 -0.03745000 0.01544998
v 0.00960000 -0.02148726 0.00472204
v 0.00960000 -0.02199902 -0.00020735
v 0.01160000 0.01145000 -0.01445000
v 0.01160000 0.01125000 -0.01445000
v 0.01160000 0.01125000 0.01445000
v 0.04559999 -0.03525000 0.01424999
v 0.01160000 -0.03525000 -0.01445000
v 0.01160000 -0.03545000 -0.01445000
v 0.01360000 -0.03545000 -0.01425000
v 0.01160000 0.01145000 0.01445000
v 0.01360000 0.01145000 0.01424999
v 0.01360000 -0.03525000 0.01445000
v 0.01160000 -0.03525000 0.01445000
v 0.01410000 -0.03525000 0.01424999
v 0.01160000 -0.03545000 0.01445000
v 0.09560001 0.01690000 0.01424999
v 0.09560001 -0.01650000 0.01424999
v 0.07714918 -0.01680000 -0.00604220
v 0.07551689 -0.01680000 -0.00321500
v 0.07495001 -0.01680000 0.00000001
v 0.04909952 -0.01680000 0.01424999
v 0.07965000 -0.01680000 -0.00814064
v 0.04559999 0.01125000 -0.01425000
v 0.04909779 0.01720227 0.01424999
v 0.07551689 0.01720000 0.00321500
v 0.07495001 0.01720000 0.00000001
v 0.02310000 0.01145000 -0.01425000
v 0.04559999 0.01125000 0.01424999
v 0.01410000 0.01125000 0.01424999
v 0.01360000 0.01125000 0.01445000
v 0.04559999 -0.01940000 0.01424999
v 0.02310000 -0.03545000 -0.01425000
v 0.02560000 0.01460813 -0.01175000
v 0.02560000 0.01145000 -0.01175000
v 0.01410000 0.01145000 0.01424999
v 0.02560000 -0.03545000 -0.01175000
v 0.02560000 -0.03545000 0.01175000
v 0.02560000 -0.03745000 -0.01175000
v 0.02560000 0.01460813 0.01175000
v 0.01460001 0.01460813 0.01424999
v 0.01460001 -0.03745000 0.01424999
v 0.01360000 -0.03545000 0.01424999
v 0.01410000 -0.03545000 0.01424999
v 0.02310000 -0.03545000 0.01424999
v 0.01360000 0.01460813 0.01424999
v 0.01160000 0.01970419 -0.00978492
v 0.00050001 0.01970419 -0.00978492
v -0.00000000 0.01925637 -0.00956254
v 0.00050001 -0.01970419 -0.00978492
v -0.00000000 0.01688133 0.01331432
v -0.00000000 0.01943319 0.00919787
v -0.00000000 0.02099891 0.00461473
v -0.00000000 -0.01925637 -0.00956254
v 0.02560000 0.01145000 0.01175000
v 0.02310000 0.01145000 0.01424999
v 0.02560000 -0.03745000 0.01175000
v 0.01160000 0.00347644 -0.01069938
v 0.00760001 0.00347644 -0.01069938
v 0.01160000 -0.00000000 -0.01125001
v 0.00760001 -0.00000000 -0.01125001
v 0.01160000 0.00347644 0.01069938
v 0.01160000 -0.00347644 -0.01069938
v 0.00760001 -0.00347644 -0.01069938
v 0.00760001 0.00347644 0.01069938
v 0.01160000 0.00661258 -0.00910144
v 0.00760001 0.00661258 -0.00910144
v 0.01160000 -0.00000000 0.01125000
v 0.01160000 -0.00347644 0.01069938
v 0.01160000 -0.00661258 0.00910143
v 0.01160000 -0.00661258 -0.00910144
v 0.00760001 -0.00661258 -0.00910144
v 0.00760001 -0.00000000 0.01125000
v 0.00760001 -0.00347644 0.01069938
v 0.00760001 -0.00661258 0.00910143
v 0.00760001 -0.00910144 0.00661258
v 0.00760001 -0.01069939 0.00347646
v 0.00760001 -0.01125000 0.00000001
v 0.00760001 -0.01069939 -0.00347643
v 0.00760001 -0.00910144 -0.00661258
v 0.01160000 0.02139444 -0.00512619
v 0.00050001 0.02139444 -0.00512619
v -0.00000000 0.02090820 -0.00500970
v 0.00050001 -0.02139444 -0.00512619
v -0.00000000 -0.02099891 0.00461473
v -0.00000000 -0.02090820 -0.00500970
v 0.08904999 0.02090000 -0.00814064
v 0.08598229 0.02090000 -0.00925718
v 0.08271772 0.02090000 -0.00925718
v 0.08598229 -0.02090000 -0.00925718
v 0.08271772 -0.02090000 -0.00925718
v 0.08904999 -0.02090000 -0.00814064
v 0.09155083 -0.02090000 0.00604220
v 0.07965000 0.02090000 -0.00814064
v 0.07965000 -0.02090000 -0.00814064
v 0.01160000 0.00910144 -0.00661258
v 0.00760001 0.00910144 -0.00661258
v 0.01160000 0.00661258 0.00910143
v 0.01160000 0.00910144 0.00661258
v 0.01160000 0.01069939 0.00347646
v 0.01160000 0.01125000 0.00000001
v 0.01160000 0.01069939 -0.00347643
v 0.01160000 -0.00910144 -0.00661258
v 0.00760001 0.00910144 0.00661258
v 0.00760001 0.00661258 0.00910143
v 0.09155083 0.02090000 -0.00604220
v 0.09155083 -0.02090000 -0.00604220
v 0.07714918 0.02090000 -0.00604220
v 0.07714918 -0.02090000 -0.00604220
v 0.00760001 0.01069939 -0.00347643
v 0.01160000 -0.01069939 -0.00347643
v 0.09318310 0.02090000 -0.00321500
v 0.07714918 0.02090000 0.00604220
v 0.07495001 0.02090000 0.00000001
v 0.09318310 -0.02090000 -0.00321500
v 0.07551689 0.02090000 -0.00321500
v 0.07551689 -0.02090000 -0.00321500
v 0.07495001 -0.02090000 0.00000001
v 0.01160000 0.02199902 -0.00020735
v 0.00050001 0.02199902 -0.00020735
v -0.00000000 0.02149905 -0.00020264
v 0.00050001 -0.02199902 -0.00020735
v -0.00000000 -0.02149905 -0.00020264
v 0.00760001 0.01125000 0.00000001
v 0.01160000 -0.01125000 0.00000001
v 0.09375000 0.02090000 0.00000001
v 0.09375000 -0.02090000 0.00000001
v 0.09318310 -0.02090000 0.00321500
v 0.01160000 0.02148726 0.00472204
v 0.00050001 0.02148726 0.00472204
v 0.00050001 -0.02148726 0.00472204
v 0.09318310 0.02090000 0.00321500
v 0.09318310 0.01720000 0.00321500
v 0.09318310 -0.01680000 0.00321500
v 0.07551689 0.02090000 0.00321500
v 0.07551689 -0.01680000 0.00321500
v 0.07551689 -0.02090000 0.00321500
v 0.00760001 0.01069939 0.00347646
v 0.01160000 -0.01069939 0.00347646
v 0.09155083 0.02090000 0.00604220
v 0.09155083 0.01720000 0.00604220
v 0.09155083 -0.01680000 0.00604220
v 0.07714918 0.01720000 0.00604220
v 0.07714918 -0.01680000 0.00604220
v 0.07714918 -0.02090000 0.00604220
v 0.01160000 -0.00910144 0.00661258
v 0.00050001 -0.01988512 0.00941180
v 0.01160000 0.01988512 0.00941180
v 0.00050001 0.01988512 0.00941180
v 0.00960000 -0.01988512 0.00941180
v 0.08904999 0.02090000 0.00814064
v 0.08271772 0.02090000 0.00925718
v 0.07965000 0.02090000 0.00814064
v 0.08904999 0.01720000 0.00814064
v 0.08904999 -0.01680000 0.00814064
v 0.08904999 -0.02090000 0.00814064
v 0.07965000 0.01720000 0.00814064
v 0.04909651 0.01720179 0.01625000
v 0.07965000 -0.01680000 0.00814064
v 0.07965000 -0.02090000 0.00814064
v 0.08598229 -0.02090000 0.00925718
v 0.08598229 0.02090000 0.00925718
v 0.08598229 0.01720000 0.00925718
v 0.08598229 -0.01680000 0.00925718
v 0.08271772 0.01720000 0.00925718
v 0.08271772 -0.01680000 0.00925718
v 0.08271772 -0.02090000 0.00925718
v 0.00050001 -0.01727392 0.01362394
v 0.01160000 0.01727392 0.01362394
v 0.00050001 0.01727392 0.01362394
v 0.00960000 -0.03645000 0.01645000
v 0.00960000 -0.01727392 0.01362394
v 0.02310000 0.01460813 0.01424999
v 0.02310000 -0.03745000 0.01424999
v 0.00050001 -0.01378614 0.01714475
v 0.01160000 0.01460813 0.01645000
v 0.00859999 0.01460813 0.01645000
v 0.00960000 -0.01460813 0.01645000
v 0.00859999 0.01376254 0.01711474
v 0.00050001 0.01378614 0.01714475
v 0.00859999 -0.01460813 0.01645000
v 0.09580001 -0.01630000 0.01424999
v 0.09580001 0.01670000 0.01424999
v 0.09580001 -0.01630000 0.01625000
v 0.09580001 0.01670000 0.01625000
v 0.09560001 -0.01650000 0.01625000
v 0.09560001 0.01690000 0.01625000
v 0.04810001 -0.01680000 0.01625000
v 0.04810001 -0.01680000 0.01424999
v 0.04660000 0.01460813 0.01424999
v 0.04660000 0.01460813 0.01625000
v 0.04559999 -0.01940000 0.01625000
v 0.04559999 -0.03695000 0.01625000
v 0.04559999 -0.03695000 0.01424999
v 0.04510000 -0.03745000 0.01424999
v 0.04510000 -0.03745000 0.01625000
v 0.01460001 0.01460813 0.01625000
v 0.01460001 -0.03745000 0.01625000
v 0.01410000 0.01410813 0.01424999
v 0.01410000 0.01410813 0.01625000
v 0.01410000 -0.03695000 0.01424999
v 0.01410000 0.01125000 0.01625000
v 0.01410000 -0.03525000 0.01625000
v 0.01360000 -0.03525000 0.01625000
v 0.01410000 -0.03695000 0.01625000
v 0.01360000 0.01460813 0.01544998
v 0.01360000 0.01145000 0.01445000
v 0.01360000 -0.03745000 0.01544998
v 0.01360000 -0.03545000 0.01445000
v 0.01360000 0.01125000 0.01625000
v 0.01360000 0.01360813 0.01645000
v 0.01160000 0.01360813 0.01645000
v 0.01360000 -0.03645000 0.01645000
v 0.00960000 -0.01305364 0.01645000
v 0.00960000 0.01305364 0.01645000
v 0.00960000 0.01196600 0.01725732
v 0.00859999 -0.01376254 0.01711474
v 0.00960000 -0.01196600 0.01725732
v 0.00050001 -0.00959878 0.01979555
v 0.00859999 0.01253581 0.01807909
v 0.00859999 -0.01253581 0.01807909
v 0.00050001 0.00959878 0.01979555
v 0.00960000 0.00825862 0.01930790
v 0.00960000 -0.00825862 0.01930790
v 0.00960000 -0.00421509 0.02057262
v 0.00859999 -0.00955984 0.01972513
v 0.00859999 0.00955984 0.01972513
v 0.00859999 0.00865188 0.02022733
v 0.00859999 0.00491049 0.02139755
v 0.00960000 0.00421509 0.02057262
v 0.00859999 -0.00491049 0.02139755
v 0.00859999 -0.00865188 0.02022733
v 0.00050001 -0.00492433 0.02144180
v 0.00050001 0.00492433 0.02144180
v 0.00859999 0.00441581 0.02155228
v 0.00859999 -0.00000000 0.02200000
v 0.00960000 -0.00000000 0.02100001
v 0.00859999 -0.00441581 0.02155228
v 0.00050001 -0.00000000 0.02200000
f 1 2 3
f 4 1 3
f 5 4 3
f 6 5 3
f 2 6 3
f 7 2 1
f 8 7 1
f 9 8 1
f 10 9 1
f 4 10 1
f 7 11 2
f 12 6 2
f 11 12 2
f 13 10 4
f 5 13 4
f 14 15 7
f 15 11 7
f 8 16 7
f 16 17 7
f 17 14 7
f 18 9 10
f 19 18 10
f 13 19 10
f 20 12 11
f 15 20 11
f 21 19 13
f 5 21 13
f 22 16 8
f 9 22 8
f 22 23 16
f 23 24 16
f 24 25 16
f 25 17 16
f 26 27 9
f 27 28 9
f 29 22 9
f 28 29 9
f 30 26 9
f 31 30 9
f 18 31 9
f 12 5 6
f 20 32 12
f 32 21 12
f 21 5 12
f 14 33 15
f 33 20 15
f 34 18 19
f 21 34 19
f 35 36 14
f 36 33 14
f 17 37 14
f 37 35 14
f 38 31 18
f 39 38 18
f 34 39 18
f 40 20 33
f 36 40 33
f 32 39 34
f 21 32 34
f 25 37 17
f 41 30 31
f 38 41 31
f 40 32 20
f 35 42 36
f 42 40 36
f 43 38 39
f 32 43 39
f 44 45 35
f 45 42 35
f 37 46 35
f 46 44 35
f 47 41 38
f 43 47 38
f 45 48 42
f 48 40 42
f 49 47 43
f 50 49 43
f 32 50 43
f 48 50 40
f 50 32 40
f 25 46 37
f 51 30 41
f 47 51 41
f 52 53 54
f 55 52 54
f 56 57 54
f 58 56 54
f 53 58 54
f 50 59 54
f 60 50 54
f 57 60 54
f 61 55 54
f 59 61 54
f 62 63 57
f 64 62 57
f 56 64 57
f 63 65 57
f 65 66 57
f 66 60 57
f 48 45 67
f 59 48 67
f 61 59 67
f 68 61 67
f 44 68 67
f 45 44 67
f 50 48 59
f 60 49 50
f 66 69 60
f 69 49 60
f 65 70 66
f 70 71 66
f 71 69 66
f 69 47 49
f 72 73 74
f 73 75 74
f 76 72 74
f 75 76 74
f 77 73 72
f 76 78 72
f 78 77 72
f 79 80 81
f 73 79 81
f 82 73 81
f 83 82 81
f 84 85 81
f 80 86 81
f 86 87 81
f 87 84 81
f 85 88 81
f 88 89 81
f 89 83 81
f 77 79 73
f 82 75 73
f 90 79 77
f 78 90 77
f 91 79 90
f 92 93 90
f 93 94 90
f 94 95 90
f 95 91 90
f 96 97 90
f 97 98 90
f 98 92 90
f 78 96 90
f 99 100 80
f 79 99 80
f 101 102 80
f 102 103 80
f 103 104 80
f 104 86 80
f 100 105 80
f 105 101 80
f 106 99 79
f 91 107 79
f 107 108 79
f 108 106 79
f 109 110 100
f 99 109 100
f 111 105 100
f 110 111 100
f 112 99 106
f 108 112 106
f 113 99 112
f 108 114 112
f 114 115 112
f 115 113 112
f 116 117 113
f 117 99 113
f 118 119 113
f 119 116 113
f 115 118 113
f 109 120 110
f 121 111 110
f 120 122 110
f 122 121 110
f 119 123 116
f 123 117 116
f 124 122 120
f 109 124 120
f 99 56 109
f 56 125 109
f 125 124 109
f 126 64 99
f 127 126 99
f 64 56 99
f 128 127 99
f 117 128 99
f 129 128 117
f 123 129 117
f 58 125 56
f 126 62 64
f 130 52 55
f 61 130 55
f 62 131 63
f 131 65 63
f 132 130 61
f 68 132 61
f 133 134 65
f 131 133 65
f 134 135 65
f 135 136 65
f 136 70 65
f 52 137 53
f 137 138 53
f 138 58 53
f 138 139 58
f 139 125 58
f 140 141 126
f 127 140 126
f 142 62 126
f 141 142 126
f 143 131 62
f 142 143 62
f 144 139 137
f 139 138 137
f 145 144 137
f 52 145 137
f 146 147 141
f 148 146 141
f 140 148 141
f 149 142 141
f 147 149 141
f 149 143 142
f 82 76 75
f 82 78 76
f 150 78 82
f 83 150 82
f 151 96 78
f 150 151 78
f 152 153 91
f 153 154 91
f 154 155 91
f 95 156 91
f 156 152 91
f 101 107 91
f 155 101 91
f 105 157 101
f 157 107 101
f 158 159 101
f 159 160 101
f 160 102 101
f 155 158 101
f 157 108 107
f 111 161 105
f 161 157 105
f 162 108 157
f 161 125 157
f 163 162 157
f 125 139 157
f 139 164 157
f 164 163 157
f 162 165 108
f 165 114 108
f 140 127 114
f 165 140 114
f 127 166 114
f 166 118 114
f 118 115 114
f 166 119 118
f 121 167 111
f 167 161 111
f 124 125 161
f 168 169 161
f 169 124 161
f 167 168 161
f 170 119 166
f 127 128 166
f 171 170 166
f 128 171 166
f 172 123 119
f 170 172 119
f 173 167 121
f 174 173 121
f 130 174 121
f 122 130 121
f 172 175 123
f 175 133 123
f 133 131 123
f 131 129 123
f 124 52 122
f 52 130 122
f 169 52 124
f 143 176 128
f 176 177 128
f 178 171 128
f 177 178 128
f 131 143 128
f 129 131 128
f 179 174 130
f 132 179 130
f 169 145 52
f 149 176 143
f 180 132 68
f 181 180 68
f 44 181 68
f 71 47 69
f 46 182 44
f 182 181 44
f 183 51 47
f 71 183 47
f 25 184 46
f 184 185 46
f 185 186 46
f 186 182 46
f 187 30 51
f 183 187 51
f 173 168 167
f 188 189 168
f 189 169 168
f 173 188 168
f 171 172 170
f 190 175 172
f 171 190 172
f 191 192 193
f 192 194 193
f 195 191 193
f 196 195 193
f 194 196 193
f 197 196 194
f 198 197 194
f 192 198 194
f 199 200 191
f 200 192 191
f 195 199 191
f 201 195 196
f 202 201 196
f 203 202 196
f 204 203 196
f 197 204 196
f 200 198 192
f 205 204 197
f 206 207 197
f 207 208 197
f 198 206 197
f 208 209 197
f 209 210 197
f 210 211 197
f 211 212 197
f 212 213 197
f 213 205 197
f 214 132 180
f 215 214 180
f 181 215 180
f 70 183 71
f 182 216 181
f 216 215 181
f 217 187 183
f 70 217 183
f 186 216 182
f 218 30 187
f 219 218 187
f 217 219 187
f 220 87 221
f 87 86 221
f 86 222 221
f 222 220 221
f 220 84 87
f 93 223 94
f 223 224 94
f 224 95 94
f 93 225 223
f 226 224 223
f 225 226 223
f 86 104 222
f 104 227 222
f 227 220 222
f 224 228 95
f 228 156 95
f 226 228 224
f 229 230 199
f 230 200 199
f 195 231 199
f 231 232 199
f 232 233 199
f 233 234 199
f 234 235 199
f 235 229 199
f 236 203 204
f 205 236 204
f 230 237 200
f 237 238 200
f 238 198 200
f 213 236 205
f 239 84 220
f 227 239 220
f 239 85 84
f 92 225 93
f 92 240 225
f 240 226 225
f 104 103 227
f 103 241 227
f 241 239 227
f 228 242 156
f 242 152 156
f 226 242 228
f 235 243 229
f 243 230 229
f 244 203 236
f 213 244 236
f 243 237 230
f 212 244 213
f 245 85 239
f 246 245 239
f 247 246 239
f 241 247 239
f 245 88 85
f 98 240 92
f 98 248 240
f 248 226 240
f 103 102 241
f 102 249 241
f 249 247 241
f 242 250 152
f 250 153 152
f 251 250 242
f 226 251 242
f 252 132 214
f 253 252 214
f 215 253 214
f 136 217 70
f 216 254 215
f 254 253 215
f 255 219 217
f 136 255 217
f 186 254 216
f 256 218 219
f 255 256 219
f 234 257 235
f 257 243 235
f 258 203 244
f 212 258 244
f 257 237 243
f 211 258 212
f 259 88 245
f 246 259 245
f 259 89 88
f 97 248 98
f 97 260 248
f 260 261 248
f 261 226 248
f 102 160 249
f 160 247 249
f 250 251 153
f 251 154 153
f 262 132 252
f 263 262 252
f 253 263 252
f 135 255 136
f 254 186 253
f 186 263 253
f 264 256 255
f 135 264 255
f 264 218 256
f 265 89 259
f 246 265 259
f 266 83 89
f 265 266 89
f 96 267 97
f 267 260 97
f 267 261 260
f 160 159 247
f 159 268 247
f 268 246 247
f 269 155 154
f 251 270 154
f 270 269 154
f 226 270 251
f 233 271 234
f 271 257 234
f 272 203 258
f 211 272 258
f 271 237 257
f 210 272 211
f 273 266 265
f 246 273 265
f 274 83 266
f 273 274 266
f 96 275 267
f 275 261 267
f 275 226 261
f 159 276 268
f 276 246 268
f 158 276 159
f 277 155 269
f 270 278 269
f 278 277 269
f 226 278 270
f 232 237 233
f 237 271 233
f 279 203 272
f 210 279 272
f 209 279 210
f 185 263 186
f 264 280 218
f 280 30 218
f 281 132 262
f 282 281 262
f 263 282 262
f 134 283 135
f 283 264 135
f 185 282 263
f 283 280 264
f 284 274 273
f 285 284 273
f 286 285 273
f 246 286 273
f 287 83 274
f 284 287 274
f 96 288 275
f 288 226 275
f 288 289 226
f 289 278 226
f 276 290 246
f 290 286 246
f 158 291 276
f 291 290 276
f 292 155 277
f 278 293 277
f 293 292 277
f 294 293 278
f 289 294 278
f 231 238 232
f 238 237 232
f 209 203 279
f 208 203 209
f 295 287 284
f 285 295 284
f 296 83 287
f 295 296 287
f 96 297 288
f 297 289 288
f 297 294 289
f 290 298 286
f 298 285 286
f 291 298 290
f 299 155 292
f 293 300 292
f 300 299 292
f 294 300 293
f 195 198 231
f 198 238 231
f 208 202 203
f 207 202 208
f 184 282 185
f 280 301 30
f 301 26 30
f 285 296 295
f 298 83 296
f 285 298 296
f 96 299 297
f 299 294 297
f 299 300 294
f 291 83 298
f 96 155 299
f 302 132 281
f 303 302 281
f 282 303 281
f 304 305 283
f 134 304 283
f 305 280 283
f 184 303 282
f 305 301 280
f 201 206 195
f 206 198 195
f 207 201 202
f 206 201 207
f 174 306 173
f 306 188 173
f 306 189 188
f 178 190 171
f 307 175 190
f 178 307 190
f 25 303 184
f 301 308 26
f 308 27 26
f 309 132 302
f 310 309 302
f 303 310 302
f 304 311 305
f 311 301 305
f 312 310 303
f 313 312 303
f 25 313 303
f 314 308 301
f 311 314 301
f 315 151 316
f 151 150 316
f 317 315 316
f 318 317 316
f 150 318 316
f 317 319 315
f 319 151 315
f 83 320 150
f 320 318 150
f 319 96 151
f 321 322 155
f 96 321 155
f 162 158 155
f 322 162 155
f 162 323 158
f 324 291 158
f 323 324 158
f 165 162 322
f 321 325 322
f 325 165 322
f 162 306 323
f 306 324 323
f 163 189 162
f 189 306 162
f 325 140 165
f 325 326 140
f 326 327 140
f 327 178 140
f 178 148 140
f 328 307 327
f 307 178 327
f 326 328 327
f 329 307 328
f 326 329 328
f 174 330 306
f 330 324 306
f 163 169 189
f 177 148 178
f 331 175 307
f 329 331 307
f 179 332 174
f 333 330 174
f 332 333 174
f 331 334 175
f 334 133 175
f 179 169 332
f 169 333 332
f 179 145 169
f 163 335 169
f 335 333 169
f 164 335 163
f 177 336 148
f 336 337 148
f 337 146 148
f 176 334 177
f 334 338 177
f 338 336 177
f 331 338 334
f 176 133 334
f 339 145 179
f 132 339 179
f 339 340 145
f 340 144 145
f 341 133 176
f 342 341 176
f 149 342 176
f 341 134 133
f 164 144 340
f 343 164 340
f 344 343 340
f 339 344 340
f 343 335 164
f 139 144 164
f 337 342 146
f 342 147 146
f 337 341 342
f 149 147 342
f 345 344 339
f 132 345 339
f 337 346 341
f 304 134 341
f 346 304 341
f 309 345 132
f 319 317 318
f 320 319 318
f 321 320 83
f 291 321 83
f 321 319 320
f 321 96 319
f 324 321 291
f 324 325 321
f 330 325 324
f 330 335 325
f 335 336 325
f 331 326 325
f 338 331 325
f 336 338 325
f 331 329 326
f 333 335 330
f 343 336 335
f 343 337 336
f 346 337 343
f 344 346 343
f 311 346 344
f 347 311 344
f 345 347 344
f 311 304 346
f 310 345 309
f 348 347 345
f 310 348 345
f 312 349 348
f 310 312 348
f 349 347 348
f 314 311 347
f 350 314 347
f 351 350 347
f 349 351 347
f 350 308 314
f 24 313 25
f 308 352 27
f 352 28 27
f 313 353 312
f 353 349 312
f 354 308 350
f 351 354 350
f 355 353 313
f 24 355 313
f 354 352 308
f 353 356 349
f 357 351 349
f 358 357 349
f 356 358 349
f 357 359 351
f 359 354 351
f 355 360 353
f 360 356 353
f 359 352 354
f 360 361 356
f 361 362 356
f 362 363 356
f 363 358 356
f 358 364 357
f 364 365 357
f 365 359 357
f 23 355 24
f 352 366 28
f 366 29 28
f 355 361 360
f 365 352 359
f 367 361 355
f 23 367 355
f 365 366 352
f 367 362 361
f 364 366 365
f 362 368 363
f 368 369 363
f 369 370 363
f 370 358 363
f 370 371 358
f 371 364 358
f 22 367 23
f 366 372 29
f 372 22 29
f 369 371 370
f 367 368 362
f 371 366 364
f 372 368 367
f 22 372 367
f 371 372 366
f 372 369 368
f 369 372 371

