# https://github.com/mikedh/trimesh

o link2.STL
v 0.00950000 0.02990000 -0.00400000
v 0.00700000 0.02990000 -0.00150000
v 0.01450000 0.02990000 -0.00400000
v 0.01700000 0.02990000 -0.00150000
v 0.01575000 0.02990000 -0.00366507
v 0.01450000 0.02790000 -0.00400000
v 0.00950000 0.02790000 -0.00400000
v 0.01575000 0.02790000 -0.00366507
v 0.01666506 0.02790000 -0.00275000
v 0.01700000 0.02790000 -0.00150000
v 0.01575000 -0.02790000 -0.00366507
v 0.01450000 -0.02990000 -0.00400000
v 0.01450000 -0.02790000 -0.00400000
v 0.00950000 -0.02790000 -0.00400000
v 0.00700000 -0.02790000 -0.00150000
v 0.01700000 -0.02790000 -0.00150000
v 0.00950000 -0.02990000 -0.00400000
v 0.01575000 -0.02990000 -0.00366507
v 0.01666506 -0.02990000 -0.00275000
v 0.01700000 -0.02990000 -0.00150000
v 0.00825000 0.02990000 -0.00366507
v 0.00733494 0.02990000 -0.00275000
v 0.00825000 0.02790000 -0.00366507
v 0.00700000 0.02790000 -0.00150000
v 0.00825000 -0.02790000 -0.00366507
v 0.00733494 -0.02790000 -0.00275000
v 0.00825000 -0.02990000 -0.00366507
v 0.00700000 -0.02990000 -0.00150000
v -0.01450000 0.02990000 -0.00400000
v -0.01700000 0.02990000 -0.00150000
v -0.00950000 0.02990000 -0.00400000
v -0.00700000 0.02990000 -0.00150000
v -0.00825000 0.02990000 -0.00366507
v -0.00950000 0.02790000 -0.00400000
v -0.01450000 0.02790000 -0.00400000
v -0.00825000 0.02790000 -0.00366507
v -0.00733494 0.02790000 -0.00275000
v -0.00700000 0.02790000 -0.00150000
v -0.01450000 -0.02790000 -0.00400000
v -0.01700000 -0.02790000 -0.00150000
v -0.00950000 -0.02790000 -0.00400000
v -0.00700000 -0.02790000 -0.00150000
v -0.00825000 -0.02790000 -0.00366507
v -0.00950000 -0.02990000 -0.00400000
v -0.01450000 -0.02990000 -0.00400000
v -0.00825000 -0.02990000 -0.00366507
v -0.00733494 -0.02990000 -0.00275000
v -0.00700000 -0.02990000 -0.00150000
v -0.01575000 0.02790000 -0.00366507
v -0.01575000 0.02990000 -0.00366507
v -0.01666506 0.02990000 -0.00275000
v -0.01700000 0.02790000 -0.00150000
v -0.01575000 -0.02790000 -0.00366507
v -0.01666506 -0.02790000 -0.00275000
v -0.01575000 -0.02990000 -0.00366507
v -0.01700000 -0.02990000 -0.00150000
v 0.01666506 0.02990000 -0.00275000
v 0.01666506 -0.02790000 -0.00275000
v 0.00733494 0.02790000 -0.00275000
v 0.00733494 -0.02990000 -0.00275000
v -0.00733494 0.02990000 -0.00275000
v -0.00733494 -0.02790000 -0.00275000
v -0.01666506 0.02790000 -0.00275000
v -0.01666506 -0.02990000 -0.00275000
v 0.00700000 0.02990000 0.00000000
v 0.01700000 0.02990000 0.02549999
v 0.01700000 0.02790000 0.02467158
v 0.00606218 0.02790000 0.00350000
v 0.00700000 0.02790000 0.00000000
v 0.01700000 -0.02790000 0.02467158
v 0.01700000 -0.02990000 0.02549999
v 0.00700000 -0.02790000 0.00000000
v 0.00606218 -0.02990000 0.00350000
v 0.00700000 -0.02990000 0.00000000
v -0.00700000 0.02990000 0.00000000
v -0.00700000 0.02790000 0.00000000
v -0.00700000 -0.02790000 0.00000000
v -0.00700000 -0.02990000 0.00000000
v -0.00606218 0.02990000 0.00350000
v -0.01700000 0.02990000 0.00729796
v -0.01700000 0.02790000 0.00729796
v -0.00606218 -0.02790000 0.00350000
v -0.01700000 -0.02790000 0.00729796
v -0.01700000 -0.02990000 0.00729796
v 0.00606218 0.02990000 0.00350000
v 0.00606218 -0.02790000 0.00350000
v -0.00606218 0.02790000 0.00350000
v -0.00606218 -0.02990000 0.00350000
v 0.00350000 0.02990000 0.00606218
v 0.00350000 0.02790000 0.00606218
v 0.00350000 -0.02790000 0.00606218
v 0.00350000 -0.02990000 0.00606218
v -0.01747392 0.02990000 0.01033995
v -0.00350000 0.02990000 0.00606218
v -0.00350000 0.02790000 0.00606218
v -0.01747392 0.02790000 0.01033995
v -0.01885075 0.02790000 0.01309363
v -0.01747392 -0.02790000 0.01033995
v -0.00350000 -0.02790000 0.00606218
v -0.00350000 -0.02990000 0.00606218
v -0.01747392 -0.02990000 0.01033995
v -0.01885075 -0.02990000 0.01309363
v 0.00000000 0.02990000 0.00699999
v 0.00000000 0.02790000 0.00699999
v 0.00000000 -0.02790000 0.00699999
v 0.00000000 -0.02990000 0.00699999
v -0.02500000 0.02990000 0.02549999
v -0.01885075 0.02990000 0.01309363
v -0.02100000 0.02790000 0.01529796
v -0.02500000 0.02790000 0.02467158
v -0.02500000 -0.02790000 0.02467158
v -0.01885075 -0.02790000 0.01309363
v -0.02100000 -0.02990000 0.01529796
v -0.02500000 -0.02990000 0.02549999
v -0.02100000 0.02990000 0.01529796
v -0.02100000 -0.02790000 0.01529796
v -0.02314925 0.02990000 0.01750229
v -0.02452608 0.02990000 0.02025596
v -0.02500000 0.02990000 0.02329796
v -0.02314925 0.02790000 0.01750229
v -0.02452608 0.02790000 0.02025596
v -0.02500000 0.02790000 0.02329796
v -0.02314925 -0.02790000 0.01750229
v -0.02452608 -0.02790000 0.02025596
v -0.02500000 -0.02790000 0.02329796
v -0.02314925 -0.02990000 0.01750229
v -0.02452608 -0.02990000 0.02025596
v -0.02500000 -0.02990000 0.02329796
v 0.01700000 0.02207157 0.03050000
v 0.01700000 -0.02207157 0.03050000
v 0.01700000 -0.02290000 0.03249999
v -0.02500000 -0.02207157 0.03050000
v -0.02500000 0.02207157 0.03050000
v -0.02500000 0.02290000 0.03249999
v 0.01700000 0.02290000 0.03249999
v -0.02500000 -0.02290000 0.03249999
v 0.01700000 0.01265470 0.03050000
v 0.01693969 0.01231268 0.03050000
v 0.01700000 0.01265470 0.03249999
v 0.01693969 0.01231268 0.03249999
v 0.01700000 -0.01236603 0.03050000
v 0.01675000 -0.01193301 0.03050000
v 0.01693301 -0.01211603 0.03050000
v 0.01700000 -0.01236603 0.03249999
v 0.01676604 0.01201191 0.03050000
v 0.01676604 0.01201191 0.03249999
v 0.01693301 -0.01211603 0.03249999
v 0.01650000 0.01178868 0.03050000
v 0.01650000 0.01178868 0.03249999
v 0.01650000 -0.01178868 0.03050000
v 0.01675000 -0.01193301 0.03249999
v 0.01613397 0.01142265 0.03050000
v 0.01613397 -0.01142265 0.03050000
v 0.01613397 -0.01142265 0.03249999
v 0.01650000 -0.01178868 0.03249999
v -0.02413397 0.01142265 0.03050000
v 0.01600000 0.01092265 0.03050000
v 0.01613397 0.01142265 0.03249999
v -0.02413397 -0.01142265 0.03050000
v 0.01600000 -0.01092265 0.03050000
v -0.02450000 -0.01178868 0.03050000
v 0.01600000 -0.01092265 0.03249999
v -0.02400000 0.01092265 0.03050000
v -0.02400000 -0.01092265 0.03050000
v 0.01600000 0.01092265 0.03249999
v -0.02400000 0.01092265 0.03249999
v -0.02400000 -0.01092265 0.03249999
v -0.02413397 -0.01142265 0.03249999
v -0.02450000 0.01178868 0.03050000
v -0.02413397 0.01142265 0.03249999
v -0.02450000 -0.01178868 0.03249999
v -0.02476604 0.01201191 0.03050000
v -0.02493969 0.01231268 0.03050000
v -0.02500000 0.01265470 0.03050000
v -0.02476604 0.01201191 0.03249999
v -0.02450000 0.01178868 0.03249999
v -0.02475000 -0.01193301 0.03050000
v -0.02475000 -0.01193301 0.03249999
v -0.02500000 -0.01236603 0.03050000
v -0.02493301 -0.01211603 0.03050000
v -0.02493969 0.01231268 0.03249999
v -0.02493301 -0.01211603 0.03249999
v -0.02500000 0.01265470 0.03249999
v -0.02500000 -0.01236603 0.03249999
v -0.00970000 0.01000000 0.03249999
v -0.00215000 0.01000000 0.03249999
v 0.00995981 -0.00985000 0.03249999
v 0.00970000 -0.01000000 0.03249999
v 0.00985000 -0.00995981 0.03249999
v 0.00215000 0.01000000 0.03249999
v 0.00970000 0.01000000 0.03249999
v 0.00985000 0.00995981 0.03249999
v 0.00995981 0.00985000 0.03249999
v 0.01000000 0.00215000 0.03249999
v 0.01000000 -0.00215000 0.03249999
v 0.01000000 -0.00970000 0.03249999
v 0.01000000 0.00970000 0.03249999
v 0.01000000 0.00970000 0.15250000
v 0.00300000 0.00215000 0.03249999
v 0.00300000 -0.00215000 0.03249999
v 0.01000000 0.00215000 0.15250000
v 0.01000000 -0.00215000 0.15250000
v 0.00300000 -0.00215000 0.15250000
v 0.01000000 -0.00970000 0.15250000
v 0.00995981 -0.00985000 0.15250000
v 0.00995981 0.00985000 0.15250000
v 0.00985000 -0.00995981 0.15250000
v 0.00985000 0.00995981 0.15250000
v 0.00970000 -0.01000000 0.15250000
v 0.00970000 0.01000000 0.15250000
v 0.00215000 0.01000000 0.15250000
v 0.00215000 -0.01000000 0.03249999
v 0.00300000 0.00215000 0.15250000
v 0.00215000 0.00300000 0.03249999
v 0.00215000 0.00300000 0.15250000
v -0.00215000 0.00300000 0.03249999
v -0.00215000 0.00300000 0.15250000
v -0.00215000 -0.00300000 0.03249999
v 0.00215000 -0.00300000 0.03249999
v 0.00215000 -0.00300000 0.15250000
v 0.00215000 -0.01000000 0.15250000
v -0.00215000 -0.01000000 0.03249999
v -0.00215000 0.01000000 0.15250000
v -0.00970000 0.01000000 0.15250000
v -0.00215000 -0.00300000 0.15250000
v -0.00970000 -0.01000000 0.03249999
v -0.00215000 -0.01000000 0.15250000
v -0.01000000 0.00215000 0.03249999
v -0.00300000 -0.00215000 0.03249999
v -0.00300000 0.00215000 0.03249999
v -0.00300000 0.00215000 0.15250000
v -0.00300000 -0.00215000 0.15250000
v -0.01000000 -0.00215000 0.03249999
v -0.01000000 -0.00215000 0.15250000
v -0.00985000 0.00995981 0.03249999
v -0.00985000 -0.00995981 0.03249999
v -0.00970000 -0.01000000 0.15250000
v -0.00985000 -0.00995981 0.15250000
v -0.00995981 0.00985000 0.03249999
v -0.00985000 0.00995981 0.15250000
v -0.00995981 -0.00985000 0.03249999
v -0.00995981 -0.00985000 0.15250000
v -0.01000000 0.00970000 0.03249999
v -0.00995981 0.00985000 0.15250000
v -0.01000000 -0.00970000 0.03249999
v -0.01000000 -0.00970000 0.15250000
v -0.01000000 0.00970000 0.15250000
v -0.01000000 0.00215000 0.15250000
v 0.02600000 0.01987157 0.15450001
v 0.02600000 -0.02070000 0.15250000
v 0.02600000 0.02070000 0.15250000
v 0.02600000 0.02370000 0.15832844
v 0.02600000 0.02570000 0.15750000
v -0.01400000 0.02070000 0.15250000
v 0.02600000 -0.01987157 0.15450001
v 0.02600000 -0.02570000 0.15750000
v -0.01400000 -0.02070000 0.15250000
v -0.01400000 -0.02570000 0.15750000
v -0.01400000 -0.01987157 0.15450001
v -0.01400000 0.01987157 0.15450001
v -0.01400000 0.02570000 0.15750000
v -0.01400000 -0.02370000 0.15832844
v -0.01400000 0.02370000 0.15832844
v 0.02600000 -0.02370000 0.15832844
v 0.02600000 0.02370000 0.16200000
v 0.02600000 0.02570000 0.16572410
v 0.02600000 -0.02570000 0.16572410
v -0.01400001 0.02370000 0.16499996
v -0.01400000 0.02370000 0.19300002
v -0.01400000 0.02570000 0.19319999
v 0.01850000 0.02570000 0.17900002
v 0.01934377 0.02570000 0.17412585
v 0.02177686 0.02570000 0.16981897
v 0.02551613 0.02570000 0.16658059
v 0.02587067 0.02570000 0.16621596
v 0.01934377 -0.02570000 0.17412585
v -0.01400000 -0.02570000 0.19319996
v 0.02177686 -0.02570000 0.16981897
v 0.02551613 -0.02570000 0.16658059
v -0.01400001 -0.02370000 0.16499996
v 0.02600000 -0.02370000 0.16200000
v -0.01100000 -0.02370000 0.16200000
v -0.01359808 0.02370000 0.16349998
v -0.01250000 0.02370000 0.16240191
v -0.01100000 0.02370000 0.16200000
v -0.01359808 -0.02370000 0.16349998
v -0.01250000 -0.02370000 0.16240191
v 0.04612843 -0.02370000 0.16222030
v 0.04219238 -0.02370000 0.16980761
v 0.04500000 -0.02370000 0.16200000
v 0.03300000 -0.02370000 0.16600001
v 0.03797488 -0.02370000 0.16698956
v 0.04499999 0.02370000 0.16200000
v 0.03797488 0.02370000 0.16698956
v 0.04612843 0.02370000 0.16222030
v 0.03300000 0.02370000 0.16600001
v 0.02600000 0.02370000 0.16572410
v 0.02600000 -0.02370000 0.16572410
v 0.04219238 0.02370000 0.16980761
v 0.04711130 0.02370000 0.16286871
v 0.04711130 -0.02370000 0.16286871
v 0.04776894 -0.02370000 0.16384542
v 0.04776894 0.02370000 0.16384542
v 0.04800001 0.02370000 0.16499999
v 0.04501043 -0.02370000 0.17402512
v 0.04800001 -0.02370000 0.16499999
v -0.01400000 -0.02370000 0.19300002
v 0.04501043 0.02370000 0.17402512
v 0.04600000 0.02370000 0.17900002
v 0.04800001 0.02370000 0.19300002
v 0.04800001 -0.02370000 0.19300002
v 0.04600000 -0.02370000 0.17900002
v 0.02802511 0.02370000 0.16698956
v 0.02587067 0.02370000 0.16621596
v 0.02587067 -0.02370000 0.16621596
v 0.02587067 -0.02570000 0.16621596
v 0.02802511 0.02780000 0.16698956
v 0.03300000 0.02780000 0.16600001
v 0.03797488 0.02780000 0.16698956
v 0.02802511 0.02780000 0.19101045
v 0.02802511 -0.02370000 0.16698956
v 0.03300000 -0.02780000 0.16600001
v 0.02802511 -0.02780000 0.16698956
v 0.03797488 -0.02780000 0.16698956
v 0.03797488 -0.02780000 0.19101045
v 0.02551613 0.02370000 0.16658059
v 0.02551613 -0.02370000 0.16658059
v 0.02177686 0.02370000 0.16981897
v 0.02380761 0.02370000 0.16980761
v 0.02177686 -0.02370000 0.16981897
v 0.04219238 0.02780000 0.16980761
v 0.03300000 0.02780000 0.19200000
v 0.04600000 0.02780000 0.17900002
v 0.04219238 0.02780000 0.18819240
v 0.03797488 0.02780000 0.19101045
v 0.04219238 -0.02780000 0.16980761
v 0.02380761 0.02780000 0.16980761
v 0.02380761 -0.02370000 0.16980761
v 0.02380761 -0.02780000 0.16980761
v 0.03300000 -0.02780000 0.19200000
v 0.02000000 -0.02780000 0.17900002
v 0.02380761 -0.02780000 0.18819240
v 0.02802511 -0.02780000 0.19101045
v 0.04501043 0.02780000 0.17402512
v 0.04501043 -0.02780000 0.17402512
v 0.04600000 -0.02780000 0.17900002
v 0.04219238 -0.02780000 0.18819240
v 0.02098957 0.02370000 0.17402512
v 0.02098957 0.02780000 0.17402512
v 0.02000000 0.02780000 0.17900002
v 0.02380761 0.02780000 0.18819240
v 0.01934377 -0.02370000 0.17412585
v 0.02098957 -0.02370000 0.17402512
v 0.02098957 -0.02780000 0.17402512
v 0.01934377 0.02370000 0.17412585
v 0.02000000 0.02370000 0.17900002
v 0.01850000 -0.02370000 0.17900002
v 0.02000000 -0.02370000 0.17900002
v 0.01850000 0.02370000 0.17900002
v 0.01850000 -0.02570000 0.17900002
v 0.04501043 0.02780000 0.18397489
v 0.04501043 0.02370000 0.18397489
v 0.04501043 -0.02370000 0.18397489
v 0.04501043 -0.02780000 0.18397489
v 0.02098957 0.02370000 0.18397489
v 0.02098957 0.02780000 0.18397489
v 0.01934377 -0.02370000 0.18387416
v 0.02098957 -0.02370000 0.18397489
v 0.02098957 -0.02780000 0.18397489
v -0.01383200 0.02570000 0.19415531
v 0.01934377 0.02570000 0.18387416
v 0.01934377 0.02370000 0.18387416
v 0.01934377 -0.02570000 0.18387416
v -0.01383206 -0.02570000 0.19415513
v -0.01215541 0.02570000 0.19583195
v 0.02177686 0.02570000 0.18818104
v -0.01317994 0.02570000 0.19517985
v 0.02177686 0.02370000 0.18818104
v 0.02380761 0.02370000 0.18819240
v 0.02177686 -0.02370000 0.18818104
v 0.02177686 -0.02570000 0.18818104
v -0.01215550 -0.02570000 0.19583192
v -0.01318004 -0.02570000 0.19517976
v -0.01120000 -0.02570000 0.19600001
v 0.04777969 0.02370000 0.19412842
v 0.04219238 0.02370000 0.18819240
v 0.04219238 -0.02370000 0.18819240
v 0.02380761 -0.02370000 0.18819240
v -0.01119997 0.02570000 0.19600001
v 0.02551613 0.02570000 0.19141942
v 0.02551613 0.02370000 0.19141942
v 0.02802511 0.02370000 0.19101045
v 0.02551613 -0.02370000 0.19141942
v 0.02551613 -0.02570000 0.19141942
v 0.02500000 -0.02570000 0.19600001
v 0.04615459 0.02370000 0.19576892
v 0.04500004 0.02370000 0.19600001
v 0.03797488 0.02370000 0.19101045
v 0.03797488 -0.02370000 0.19101045
v 0.02802511 -0.02370000 0.19101045
v 0.03300000 0.02370000 0.19200000
v 0.03300000 -0.02370000 0.19200000
v 0.02587067 0.02370000 0.19178405
v 0.02587067 -0.02370000 0.19178405
v 0.02600000 0.02570000 0.19227591
v 0.02587067 0.02570000 0.19178405
v 0.02500000 0.02570000 0.19600001
v 0.02587067 -0.02570000 0.19178405
v 0.02600000 0.02370000 0.19227591
v 0.02600000 -0.02370000 0.19227591
v 0.02600000 -0.02570000 0.19227591
v 0.02600000 0.02370000 0.19499999
v 0.02600000 0.02570000 0.19499999
v 0.04500001 -0.02370000 0.19600001
v 0.02600000 -0.02370000 0.19499999
v 0.02600000 -0.02570000 0.19499999
v 0.04777969 -0.02370000 0.19412842
v -0.01399336 0.02370000 0.19319966
v -0.01399337 -0.02370000 0.19319946
v -0.01381458 0.02370000 0.19403836
v -0.01381458 -0.02370000 0.19403836
v -0.01383206 -0.02370000 0.19415513
v -0.01383200 0.02370000 0.19415531
v -0.01312133 -0.02370000 0.19512132
v -0.01312133 0.02370000 0.19512132
v -0.01317994 0.02370000 0.19517985
v 0.04713130 0.02370000 0.19511130
v 0.04713130 -0.02370000 0.19511130
v 0.04615459 -0.02370000 0.19576892
v -0.01318004 -0.02370000 0.19517976
v 0.02592298 0.02570000 0.19538486
v 0.02537614 0.02570000 0.19592658
v 0.02592298 0.02370000 0.19538486
v 0.02592297 -0.02370000 0.19538486
v 0.02592297 -0.02570000 0.19538486
v 0.02570376 -0.02570000 0.19571045
v 0.02537613 -0.02570000 0.19592658
v -0.01203835 -0.02370000 0.19581458
v -0.01203835 0.02370000 0.19581458
v -0.01215541 0.02370000 0.19583195
v -0.01215550 -0.02370000 0.19583192
v 0.02570377 0.02570000 0.19571045
v 0.02570377 0.02370000 0.19571045
v 0.02570376 -0.02370000 0.19571045
v 0.02537614 0.02370000 0.19592658
v 0.02537613 -0.02370000 0.19592658
v -0.01119979 0.02370000 0.19599751
v -0.01119984 -0.02370000 0.19599751
v 0.02499999 0.02370000 0.19600001
v 0.02499999 -0.02370000 0.19600001
v -0.01100000 0.02370000 0.19600001
v -0.01100000 -0.02370000 0.19600001
f 1 2 3
f 2 4 3
f 4 5 3
f 6 7 3
f 7 1 3
f 5 6 3
f 8 9 6
f 9 10 6
f 10 7 6
f 5 8 6
f 11 12 13
f 14 15 13
f 15 16 13
f 16 11 13
f 12 17 13
f 17 14 13
f 11 18 12
f 18 19 12
f 19 20 12
f 20 17 12
f 21 22 1
f 22 2 1
f 23 21 1
f 7 23 1
f 10 24 7
f 24 23 7
f 25 26 14
f 26 15 14
f 27 25 14
f 17 27 14
f 20 28 17
f 28 27 17
f 29 30 31
f 30 32 31
f 32 33 31
f 34 35 31
f 35 29 31
f 33 34 31
f 36 37 34
f 37 38 34
f 38 35 34
f 33 36 34
f 39 40 41
f 40 42 41
f 42 43 41
f 43 44 41
f 44 45 41
f 45 39 41
f 46 47 44
f 47 48 44
f 48 45 44
f 43 46 44
f 49 50 29
f 35 49 29
f 50 51 29
f 51 30 29
f 38 52 35
f 52 49 35
f 53 54 39
f 54 40 39
f 55 53 39
f 45 55 39
f 48 56 45
f 56 55 45
f 4 57 5
f 57 8 5
f 57 9 8
f 58 18 11
f 16 58 11
f 58 19 18
f 59 22 21
f 23 59 21
f 24 59 23
f 60 26 25
f 27 60 25
f 28 60 27
f 32 61 33
f 61 36 33
f 61 37 36
f 42 62 43
f 62 46 43
f 62 47 46
f 63 51 50
f 49 63 50
f 52 63 49
f 64 54 53
f 55 64 53
f 56 64 55
f 4 9 57
f 4 10 9
f 16 19 58
f 16 20 19
f 24 2 22
f 59 24 22
f 28 15 26
f 60 28 26
f 32 37 61
f 32 38 37
f 42 47 62
f 42 48 47
f 52 30 51
f 63 52 51
f 56 40 54
f 64 56 54
f 65 66 4
f 2 65 4
f 67 10 4
f 66 67 4
f 67 68 10
f 68 69 10
f 69 24 10
f 70 71 16
f 71 20 16
f 72 70 16
f 15 72 16
f 71 73 20
f 73 74 20
f 74 28 20
f 69 65 2
f 24 69 2
f 74 72 15
f 28 74 15
f 30 75 32
f 75 38 32
f 76 52 38
f 75 76 38
f 40 77 42
f 77 48 42
f 78 56 48
f 77 78 48
f 79 75 30
f 80 79 30
f 81 80 30
f 52 81 30
f 76 81 52
f 82 77 40
f 83 82 40
f 84 83 40
f 56 84 40
f 78 84 56
f 85 66 65
f 69 85 65
f 68 85 69
f 86 70 72
f 74 86 72
f 73 86 74
f 79 87 75
f 87 76 75
f 87 81 76
f 82 88 77
f 88 78 77
f 88 84 78
f 89 66 85
f 68 89 85
f 67 90 68
f 90 89 68
f 91 70 86
f 73 91 86
f 71 92 73
f 92 91 73
f 80 93 79
f 93 94 79
f 94 95 79
f 95 87 79
f 96 81 87
f 97 96 87
f 95 97 87
f 83 98 82
f 98 99 82
f 99 100 82
f 100 88 82
f 101 84 88
f 102 101 88
f 100 102 88
f 103 66 89
f 90 103 89
f 67 104 90
f 104 103 90
f 105 70 91
f 92 105 91
f 71 106 92
f 106 105 92
f 107 103 94
f 93 108 94
f 108 107 94
f 103 104 94
f 104 95 94
f 109 97 95
f 104 67 95
f 67 110 95
f 110 109 95
f 111 105 99
f 98 112 99
f 112 111 99
f 105 106 99
f 106 100 99
f 113 102 100
f 106 71 100
f 71 114 100
f 114 113 100
f 107 66 103
f 111 70 105
f 81 93 80
f 96 93 81
f 84 98 83
f 101 98 84
f 96 108 93
f 97 108 96
f 101 112 98
f 102 112 101
f 115 107 108
f 97 115 108
f 109 115 97
f 116 111 112
f 102 116 112
f 113 116 102
f 117 118 115
f 118 119 115
f 119 107 115
f 109 120 115
f 120 117 115
f 121 120 109
f 110 122 109
f 122 121 109
f 123 124 116
f 124 125 116
f 125 111 116
f 113 126 116
f 126 123 116
f 127 126 113
f 114 128 113
f 128 127 113
f 120 121 117
f 121 118 117
f 126 127 123
f 127 124 123
f 121 122 118
f 122 119 118
f 127 128 124
f 128 125 124
f 122 107 119
f 110 107 122
f 128 111 125
f 114 111 128
f 129 110 67
f 66 129 67
f 130 131 70
f 131 71 70
f 111 132 70
f 132 130 70
f 133 134 110
f 134 107 110
f 129 133 110
f 114 132 111
f 135 129 66
f 107 134 66
f 134 135 66
f 131 114 71
f 136 132 114
f 131 136 114
f 137 133 129
f 135 137 129
f 138 133 137
f 135 139 137
f 140 138 137
f 139 140 137
f 130 132 141
f 142 143 141
f 132 142 141
f 143 144 141
f 144 130 141
f 144 131 130
f 145 133 138
f 146 145 138
f 140 146 138
f 142 147 143
f 147 144 143
f 148 133 145
f 149 148 145
f 146 149 145
f 132 150 142
f 150 151 142
f 151 147 142
f 152 133 148
f 149 152 148
f 132 153 150
f 154 155 150
f 153 154 150
f 155 151 150
f 156 133 152
f 157 156 152
f 158 157 152
f 149 158 152
f 159 160 153
f 161 159 153
f 132 161 153
f 162 154 153
f 160 162 153
f 163 156 157
f 164 163 157
f 160 164 157
f 158 165 157
f 165 162 157
f 162 160 157
f 159 164 160
f 166 156 163
f 164 167 163
f 167 166 163
f 168 167 164
f 159 168 164
f 169 133 156
f 170 169 156
f 166 170 156
f 171 168 159
f 161 171 159
f 172 173 169
f 173 174 169
f 174 133 169
f 175 172 169
f 176 175 169
f 170 176 169
f 132 177 161
f 177 178 161
f 178 171 161
f 132 179 177
f 179 180 177
f 180 178 177
f 181 173 172
f 175 181 172
f 182 178 180
f 179 182 180
f 183 174 173
f 181 183 173
f 174 183 133
f 183 134 133
f 132 136 179
f 136 184 179
f 184 182 179
f 185 186 135
f 134 185 135
f 186 158 135
f 158 149 135
f 149 139 135
f 149 140 139
f 187 131 144
f 155 187 144
f 151 155 144
f 147 151 144
f 188 136 131
f 189 188 131
f 187 189 131
f 149 146 140
f 154 187 155
f 190 191 158
f 186 190 158
f 191 192 158
f 192 193 158
f 193 165 158
f 162 194 154
f 194 195 154
f 195 196 154
f 196 187 154
f 193 197 165
f 197 162 165
f 197 194 162
f 198 194 197
f 193 198 197
f 199 200 194
f 200 195 194
f 201 199 194
f 198 201 194
f 202 196 195
f 203 202 195
f 200 203 195
f 204 205 196
f 205 187 196
f 202 204 196
f 192 206 193
f 206 198 193
f 205 207 187
f 207 189 187
f 191 208 192
f 208 206 192
f 207 209 189
f 209 188 189
f 210 208 191
f 211 210 191
f 190 211 191
f 212 136 188
f 209 212 188
f 213 200 199
f 201 213 199
f 213 203 200
f 186 214 190
f 215 211 190
f 214 215 190
f 186 216 214
f 217 215 214
f 216 217 214
f 218 212 219
f 220 218 219
f 221 220 219
f 212 221 219
f 218 222 212
f 222 136 212
f 209 221 212
f 223 216 186
f 224 223 186
f 185 224 186
f 223 217 216
f 225 222 218
f 220 225 218
f 226 136 222
f 227 226 222
f 225 227 222
f 228 229 230
f 231 228 230
f 232 231 230
f 229 232 230
f 228 233 229
f 234 232 229
f 233 234 229
f 134 235 185
f 235 224 185
f 236 136 226
f 237 238 226
f 238 236 226
f 227 237 226
f 134 239 235
f 239 240 235
f 240 224 235
f 241 136 236
f 238 242 236
f 242 241 236
f 134 243 239
f 243 244 239
f 244 240 239
f 245 168 241
f 168 136 241
f 242 246 241
f 246 245 241
f 134 183 243
f 183 228 243
f 247 244 243
f 248 247 243
f 228 248 243
f 183 233 228
f 231 248 228
f 183 170 233
f 170 166 233
f 166 245 233
f 246 234 233
f 245 246 233
f 166 167 245
f 167 168 245
f 183 176 170
f 171 136 168
f 183 175 176
f 184 136 171
f 178 184 171
f 182 184 178
f 183 181 175
f 249 250 251
f 252 249 251
f 253 252 251
f 254 253 251
f 198 206 251
f 201 198 251
f 206 208 251
f 208 210 251
f 210 254 251
f 202 201 251
f 204 202 251
f 250 204 251
f 255 256 250
f 249 255 250
f 209 207 250
f 221 209 250
f 205 204 250
f 207 205 250
f 227 221 250
f 237 227 250
f 257 237 250
f 258 257 250
f 256 258 250
f 202 213 201
f 203 213 202
f 211 254 210
f 223 254 211
f 215 223 211
f 217 223 215
f 227 225 220
f 221 227 220
f 224 254 223
f 232 248 231
f 234 248 232
f 240 254 224
f 257 238 237
f 244 254 240
f 257 242 238
f 247 254 244
f 257 246 242
f 248 254 247
f 257 254 248
f 234 257 248
f 246 257 234
f 257 259 254
f 259 260 254
f 260 261 254
f 261 253 254
f 258 262 257
f 262 259 257
f 252 263 249
f 263 260 249
f 260 255 249
f 264 256 255
f 260 259 255
f 259 264 255
f 263 261 260
f 262 264 259
f 265 252 253
f 266 265 253
f 261 266 253
f 267 258 256
f 264 267 256
f 268 269 261
f 269 270 261
f 263 268 261
f 271 272 261
f 272 273 261
f 273 274 261
f 270 271 261
f 274 275 261
f 275 266 261
f 276 277 258
f 278 276 258
f 279 278 258
f 267 279 258
f 277 280 258
f 280 262 258
f 265 263 252
f 281 267 264
f 282 281 264
f 262 282 264
f 283 268 263
f 284 283 263
f 265 285 263
f 285 284 263
f 280 286 262
f 287 282 262
f 286 287 262
f 288 289 290
f 291 281 290
f 292 291 290
f 289 292 290
f 293 288 290
f 265 293 290
f 281 265 290
f 294 295 293
f 296 294 293
f 265 296 293
f 295 288 293
f 266 297 265
f 297 296 265
f 281 285 265
f 291 298 281
f 298 267 281
f 282 285 281
f 287 284 285
f 282 287 285
f 299 300 295
f 294 299 295
f 300 288 295
f 301 302 288
f 302 289 288
f 300 301 288
f 286 283 284
f 287 286 284
f 299 303 300
f 303 301 300
f 303 302 301
f 286 268 283
f 280 268 286
f 299 304 303
f 304 302 303
f 305 289 302
f 306 305 302
f 304 306 302
f 280 307 268
f 307 269 268
f 277 307 280
f 299 308 304
f 308 309 304
f 309 310 304
f 311 306 304
f 310 311 304
f 312 305 306
f 311 312 306
f 275 297 266
f 313 296 297
f 314 313 297
f 275 314 297
f 291 315 298
f 315 267 298
f 316 279 267
f 315 316 267
f 313 317 318
f 296 313 318
f 319 296 318
f 320 319 318
f 317 320 318
f 319 294 296
f 321 315 291
f 292 322 291
f 322 323 291
f 323 321 291
f 292 324 322
f 325 323 322
f 324 325 322
f 274 314 275
f 326 313 314
f 274 326 314
f 321 327 315
f 327 316 315
f 327 279 316
f 328 326 274
f 273 328 274
f 329 313 326
f 328 329 326
f 321 330 327
f 278 279 327
f 330 278 327
f 331 294 319
f 320 332 319
f 333 331 319
f 334 333 319
f 335 334 319
f 332 335 319
f 331 299 294
f 289 324 292
f 289 336 324
f 336 325 324
f 329 337 317
f 313 329 317
f 337 320 317
f 338 330 321
f 323 339 321
f 339 338 321
f 325 340 323
f 341 339 323
f 342 341 323
f 343 342 323
f 340 343 323
f 344 299 331
f 333 344 331
f 344 308 299
f 305 336 289
f 305 345 336
f 345 346 336
f 347 325 336
f 346 347 336
f 348 349 337
f 329 348 337
f 349 350 337
f 351 320 337
f 350 351 337
f 328 348 329
f 352 330 338
f 353 352 338
f 339 354 338
f 354 353 338
f 341 354 339
f 355 328 273
f 272 355 273
f 355 348 328
f 276 278 330
f 352 276 330
f 333 308 344
f 333 309 308
f 312 345 305
f 312 346 345
f 356 350 349
f 348 356 349
f 355 356 348
f 357 352 353
f 358 357 353
f 354 341 353
f 341 358 353
f 359 355 272
f 271 359 272
f 359 356 355
f 360 276 352
f 357 360 352
f 360 277 276
f 361 309 333
f 334 361 333
f 362 310 309
f 361 362 309
f 311 363 312
f 363 346 312
f 363 364 346
f 364 347 346
f 365 366 350
f 356 365 350
f 366 351 350
f 359 365 356
f 367 357 358
f 368 367 358
f 341 369 358
f 369 368 358
f 342 369 341
f 270 370 271
f 370 371 271
f 372 359 271
f 371 372 271
f 372 365 359
f 373 360 357
f 367 373 357
f 373 374 360
f 374 277 360
f 375 376 371
f 377 375 371
f 370 377 371
f 378 372 371
f 376 378 371
f 379 365 372
f 378 379 372
f 368 380 367
f 381 373 367
f 380 381 367
f 382 383 373
f 383 374 373
f 384 382 373
f 381 384 373
f 334 362 361
f 385 310 362
f 386 385 362
f 334 386 362
f 311 387 363
f 387 364 363
f 387 347 364
f 379 351 366
f 365 379 366
f 388 380 368
f 369 342 368
f 342 388 368
f 389 390 376
f 375 389 376
f 391 378 376
f 390 391 376
f 392 379 378
f 391 392 378
f 388 393 380
f 394 381 380
f 393 394 380
f 395 384 381
f 394 395 381
f 335 386 334
f 396 385 386
f 397 396 386
f 398 397 386
f 335 398 386
f 311 399 387
f 399 347 387
f 399 325 347
f 392 320 351
f 379 392 351
f 400 393 388
f 342 343 388
f 343 400 388
f 332 398 335
f 401 397 398
f 332 401 398
f 311 402 399
f 402 325 399
f 402 340 325
f 401 332 320
f 392 401 320
f 403 401 392
f 391 403 392
f 404 393 400
f 402 404 400
f 343 340 400
f 340 402 400
f 405 406 390
f 407 405 390
f 389 407 390
f 406 391 390
f 406 403 391
f 404 394 393
f 408 395 394
f 404 408 394
f 405 403 406
f 409 401 403
f 405 409 403
f 311 410 404
f 402 311 404
f 410 408 404
f 411 395 408
f 410 411 408
f 409 412 401
f 412 397 401
f 413 412 405
f 412 409 405
f 407 413 405
f 414 415 410
f 311 414 410
f 416 411 410
f 415 416 410
f 416 395 411
f 417 311 310
f 385 417 310
f 417 414 311
f 418 270 269
f 307 418 269
f 277 419 307
f 419 418 307
f 420 418 419
f 421 420 419
f 422 421 419
f 277 422 419
f 420 423 418
f 370 270 418
f 423 370 418
f 374 422 277
f 421 424 420
f 424 425 420
f 426 423 420
f 425 426 420
f 422 424 421
f 396 427 385
f 427 417 385
f 428 429 417
f 429 414 417
f 427 428 417
f 383 430 422
f 374 383 422
f 430 424 422
f 426 377 370
f 423 426 370
f 431 412 413
f 432 431 413
f 407 432 413
f 433 397 412
f 431 433 412
f 434 416 415
f 414 434 415
f 435 436 416
f 437 395 416
f 436 437 416
f 434 435 416
f 396 428 427
f 396 429 428
f 424 438 425
f 438 439 425
f 440 426 425
f 439 440 425
f 430 438 424
f 382 441 430
f 383 382 430
f 441 438 430
f 440 375 377
f 426 440 377
f 442 433 431
f 432 442 431
f 443 397 433
f 442 443 433
f 444 435 434
f 414 444 434
f 444 436 435
f 432 443 442
f 445 397 443
f 432 445 443
f 446 436 444
f 414 446 444
f 446 437 436
f 397 414 396
f 414 429 396
f 438 447 439
f 447 440 439
f 448 447 438
f 441 448 438
f 382 448 441
f 384 448 382
f 440 389 375
f 447 389 440
f 407 449 432
f 449 445 432
f 449 397 445
f 450 395 446
f 395 437 446
f 414 450 446
f 451 389 447
f 448 451 447
f 384 452 448
f 452 451 448
f 449 414 397
f 449 450 414
f 451 449 407
f 389 451 407
f 452 384 395
f 451 452 395
f 450 451 395
f 451 450 449

