# https://github.com/mikedh/trimesh

o sagittarius_base_link.STL
v 0.09000000 -0.03200000 0.00000000
v 0.07000000 0.04250000 0.00000000
v 0.09000000 0.03200000 0.00000000
v 0.08400000 0.04250000 0.00000000
v 0.08400000 0.04250000 0.07000000
v 0.09000000 0.03200000 0.07000000
v 0.08400000 -0.04250000 0.00000000
v 0.07000000 -0.04250000 0.00000000
v 0.09000000 -0.03200000 0.07000000
v 0.07000000 0.04250000 0.00300000
v 0.08400000 -0.04250000 0.07000000
v -0.02000000 -0.04250000 0.07000000
v -0.02000000 -0.04250000 0.04650000
v 0.07000000 -0.04250000 0.00300000
v -0.07000000 -0.04887500 0.00000000
v 0.07000000 0.04887500 0.00000000
v -0.07000000 -0.04250000 0.00000000
v 0.06370000 0.05990000 0.00000000
v 0.07000000 0.04887500 0.00300000
v 0.06370000 0.05990000 0.00300000
v -0.06370000 -0.05990000 0.00000000
v 0.07000000 -0.04887500 0.00000000
v 0.06370000 -0.05990000 0.00000000
v 0.07000000 -0.04887500 0.00300000
v -0.07000000 0.04250000 0.00000000
v -0.06370000 0.05990000 0.00000000
v -0.06370000 0.05990000 0.00300000
v 0.06370000 -0.05990000 0.00300000
v -0.07000000 0.04887500 0.00000000
v -0.07000000 0.04887500 0.00300000
v -0.06370000 -0.05990000 0.00300000
v -0.09000000 0.03200000 0.00000000
v -0.08400000 0.04250000 0.00000000
v -0.09000000 -0.03200000 0.00000000
v -0.07000000 0.04250000 0.00300000
v -0.08400000 -0.04250000 0.00000000
v -0.07000000 -0.04250000 0.00300000
v -0.07000000 -0.04887500 0.00300000
v -0.09000000 0.03200000 0.04650000
v -0.08400000 0.04250000 0.04650000
v -0.08400000 -0.04250000 0.04650000
v -0.09000000 -0.03200000 0.04650000
v -0.02000000 0.04250000 0.04650000
v -0.02000000 0.04250000 0.07000000
v 0.03177483 0.01820288 0.06900001
v 0.06639877 -0.00695288 0.06900001
v 0.06750000 -0.00000000 0.06900001
v 0.06639877 0.00695288 0.06900001
v 0.06639877 -0.00695288 0.07000000
v 0.06750000 -0.00000000 0.07000000
v 0.06639877 0.00695288 0.07000000
v 0.06320288 0.01322517 0.06900001
v 0.06320288 -0.01322517 0.06900001
v 0.06320288 -0.01322517 0.07000000
v 0.06320288 0.01322517 0.07000000
v 0.05822517 0.01820288 0.06900001
v 0.05195288 0.02139877 0.06900001
v 0.04500000 0.02250000 0.06900001
v 0.03804712 0.02139877 0.06900001
v 0.05822517 -0.01820288 0.06900001
v 0.05822517 -0.01820288 0.07000000
v 0.05822517 0.01820288 0.07000000
v 0.05195288 -0.02139877 0.06900001
v 0.05195288 -0.02139877 0.07000000
v 0.05195288 0.02139877 0.07000000
v 0.04500000 -0.02250000 0.06900001
v 0.04500000 -0.02250000 0.07000000
v 0.04500000 0.02250000 0.07000000
v 0.03804712 -0.02139877 0.06900001
v 0.03804712 -0.02139877 0.07000000
v 0.03804712 0.02139877 0.07000000
v 0.03177483 -0.01820288 0.06900001
v 0.03177483 -0.01820288 0.07000000
v 0.02679712 0.01322517 0.06900001
v 0.03177483 0.01820288 0.07000000
v 0.02679712 -0.01322517 0.06900001
v 0.02679712 -0.01322517 0.07000000
v 0.02679712 0.01322517 0.07000000
v 0.02360123 0.00695288 0.06900001
v 0.02250000 -0.00000000 0.06900001
v 0.02360123 -0.00695288 0.06900001
v 0.02360123 -0.00695288 0.07000000
v 0.02360123 0.00695288 0.07000000
v 0.02250000 -0.00000000 0.07000000
v -0.00100000 0.03782843 0.07000000
v -0.00100000 -0.03782843 0.07000000
v -0.00100000 -0.02600000 0.07000000
v -0.01600000 -0.02600000 0.07000000
v -0.00100000 0.02600000 0.07000000
v -0.01600000 0.03782843 0.07000000
v -0.01600000 0.03719475 0.07104526
v -0.00100000 0.03719475 0.07104526
v -0.00100000 0.03500000 0.07200000
v -0.00100000 0.03619671 0.07175098
v -0.01600000 0.02600000 0.07000000
v -0.00100000 0.02600000 0.07200000
v -0.00100000 0.02450000 0.07040193
v -0.00100000 -0.02600000 0.07200000
v -0.00100000 -0.02550000 0.07213398
v -0.00100000 -0.02450000 0.07040193
v -0.01600000 -0.02450000 0.07040193
v -0.01600000 -0.03782843 0.07000000
v -0.00100000 -0.03500000 0.07200000
v -0.00100000 -0.03719475 0.07104526
v -0.01600000 0.03500000 0.07200000
v -0.01600000 0.02600000 0.07200000
v -0.01600000 0.02550000 0.07213398
v -0.01600000 0.02450000 0.07040193
v -0.01600000 -0.02600000 0.07200000
v -0.01600000 -0.03500000 0.07200000
v -0.01600000 -0.03619671 0.07175098
v -0.01600000 -0.03719475 0.07104526
v -0.00100000 0.02550000 0.07213398
v -0.00100000 0.02340192 0.07150000
v -0.00100000 -0.02513397 0.07250001
v -0.00100000 -0.02340192 0.07150000
v -0.01600000 -0.02340192 0.07150000
v -0.01600000 0.02513397 0.07250001
v -0.01600000 0.02340192 0.07150000
v -0.01600000 -0.02550000 0.07213398
v -0.01600000 0.03619671 0.07175098
v -0.00100000 -0.03619671 0.07175098
v -0.00100000 0.02513397 0.07250001
v -0.00100000 0.02300000 0.07300001
v -0.00100000 -0.02500000 0.07300001
v -0.00100000 -0.02300000 0.07300001
v -0.01600000 -0.02300000 0.07300001
v -0.01600000 0.02500000 0.07300001
v -0.01600000 0.02300000 0.07300001
v -0.01600000 -0.02513397 0.07250001
v -0.00100000 0.02500000 0.07300001
v -0.01600000 -0.02500000 0.07300001
v -0.00100000 0.02500000 0.08150000
v -0.00100000 0.02300000 0.08050000
v -0.01600000 0.02300000 0.08050000
v -0.00100000 -0.02500000 0.08150000
v -0.00100000 -0.02300000 0.08050000
v -0.01600000 -0.02500000 0.08150000
v -0.01600000 0.02500000 0.08150000
v -0.01600000 -0.02300000 0.08050000
v -0.00100000 0.01700000 0.08650000
v -0.01600000 0.01700000 0.08650000
v -0.00100000 -0.01800000 0.08850000
v -0.00100000 -0.01700000 0.08650000
v -0.01600000 0.01800000 0.08850000
v -0.01600000 -0.01700000 0.08650000
v -0.00100000 0.01800000 0.08850000
v -0.01600000 -0.01800000 0.08850000
v -0.00850000 0.01750000 0.08850000
v -0.00700000 0.01709808 0.08850000
v -0.00590192 0.01600000 0.08850000
v -0.00550000 0.01450000 0.08850000
v -0.00700000 0.01190192 0.08850000
v -0.00850000 0.01150000 0.08850000
v -0.00590192 0.01300000 0.08850000
v -0.00590192 -0.01600000 0.08850000
v -0.00700000 -0.01709808 0.08850000
v -0.00850000 -0.01750000 0.08850000
v -0.00590192 -0.01300000 0.08850000
v -0.00550000 -0.01450000 0.08850000
v -0.00550000 0.01450000 0.10150000
v -0.00590192 0.01300000 0.10150000
v -0.00550000 -0.01450000 0.10150000
v -0.00590192 -0.01600000 0.10150000
v -0.00590192 0.01600000 0.10150000
v -0.00700000 0.01190192 0.10150000
v -0.00700000 -0.01190192 0.08850000
v -0.00590192 -0.01300000 0.10150000
v -0.00700000 -0.01709808 0.10150000
v -0.00700000 0.01709808 0.10150000
v -0.00850000 0.01150000 0.10150000
v -0.00850000 -0.01150000 0.08850000
v -0.00700000 -0.01190192 0.10150000
v -0.00850000 -0.01750000 0.10150000
v -0.01000000 0.01709808 0.08850000
v -0.00850000 0.01750000 0.10150000
v -0.01000000 -0.01190192 0.08850000
v -0.01000000 0.01190192 0.08850000
v -0.01000000 0.01190192 0.10150000
v -0.00850000 -0.01150000 0.10150000
v -0.01000000 -0.01709808 0.08850000
v -0.01000000 -0.01709808 0.10150000
v -0.01109808 0.01600000 0.08850000
v -0.01000000 0.01709808 0.10150000
v -0.01109808 0.01300000 0.08850000
v -0.01109808 0.01300000 0.10150000
v -0.01109808 -0.01300000 0.08850000
v -0.01000000 -0.01190192 0.10150000
v -0.01109808 -0.01600000 0.08850000
v -0.01109808 -0.01600000 0.10150000
v -0.01150000 0.01450000 0.08850000
v -0.01109808 0.01600000 0.10150000
v -0.01150000 0.01450000 0.10150000
v -0.01150000 -0.01450000 0.08850000
v -0.01109808 -0.01300000 0.10150000
v -0.01150000 -0.01450000 0.10150000
f 1 2 3
f 2 4 3
f 5 6 3
f 4 5 3
f 6 1 3
f 7 8 1
f 8 2 1
f 6 9 1
f 9 7 1
f 2 10 4
f 10 5 4
f 11 12 7
f 12 13 7
f 14 8 7
f 13 14 7
f 9 11 7
f 2 15 16
f 15 17 16
f 17 18 16
f 19 10 16
f 10 2 16
f 20 19 16
f 18 20 16
f 8 21 2
f 21 15 2
f 22 23 8
f 23 21 8
f 24 22 8
f 14 24 8
f 24 23 22
f 17 25 18
f 25 26 18
f 27 20 18
f 26 27 18
f 24 28 23
f 28 21 23
f 25 29 26
f 30 27 26
f 29 30 26
f 28 31 21
f 31 15 21
f 25 30 29
f 32 33 25
f 34 32 25
f 17 34 25
f 33 35 25
f 35 30 25
f 36 34 17
f 37 36 17
f 15 37 17
f 31 38 15
f 38 37 15
f 39 40 33
f 32 39 33
f 40 35 33
f 37 41 36
f 41 34 36
f 42 39 32
f 34 42 32
f 41 42 34
f 20 27 19
f 27 30 19
f 30 10 19
f 35 40 10
f 40 43 10
f 43 44 10
f 44 5 10
f 30 35 10
f 13 37 14
f 37 38 14
f 38 24 14
f 38 31 24
f 31 28 24
f 13 41 37
f 13 44 43
f 42 13 43
f 39 42 43
f 40 39 43
f 12 44 13
f 42 41 13
f 45 46 47
f 48 45 47
f 46 49 47
f 49 50 47
f 50 48 47
f 50 51 48
f 51 52 48
f 52 45 48
f 53 54 46
f 54 49 46
f 45 53 46
f 51 55 52
f 55 56 52
f 57 58 52
f 56 57 52
f 59 45 52
f 58 59 52
f 60 61 53
f 61 54 53
f 45 60 53
f 55 62 56
f 62 57 56
f 63 64 60
f 64 61 60
f 45 63 60
f 62 65 57
f 65 58 57
f 66 67 63
f 67 64 63
f 45 66 63
f 65 68 58
f 68 59 58
f 69 70 66
f 70 67 66
f 45 69 66
f 68 71 59
f 71 45 59
f 72 73 69
f 73 70 69
f 74 72 69
f 45 74 69
f 71 75 45
f 75 74 45
f 76 77 72
f 77 73 72
f 74 76 72
f 75 78 74
f 78 79 74
f 79 80 74
f 80 81 74
f 81 76 74
f 81 82 76
f 82 77 76
f 78 83 79
f 83 80 79
f 80 84 81
f 84 82 81
f 83 84 80
f 51 50 6
f 50 9 6
f 5 62 6
f 62 55 6
f 55 51 6
f 50 49 9
f 49 54 9
f 54 11 9
f 44 85 5
f 65 62 5
f 85 71 5
f 71 68 5
f 68 65 5
f 64 67 11
f 86 12 11
f 67 86 11
f 54 61 11
f 61 64 11
f 87 86 67
f 70 87 67
f 85 75 71
f 73 87 70
f 85 78 75
f 77 87 73
f 85 83 78
f 88 87 77
f 82 88 77
f 89 84 83
f 85 89 83
f 84 88 82
f 89 88 84
f 44 90 85
f 90 91 85
f 91 92 85
f 93 89 85
f 94 93 85
f 92 94 85
f 95 88 89
f 96 97 89
f 93 96 89
f 97 95 89
f 98 86 87
f 99 98 87
f 100 99 87
f 88 101 87
f 101 100 87
f 102 12 86
f 103 104 86
f 98 103 86
f 104 102 86
f 44 95 90
f 105 91 90
f 106 105 90
f 95 106 90
f 44 12 95
f 12 88 95
f 107 106 95
f 108 107 95
f 97 108 95
f 12 102 88
f 109 101 88
f 110 109 88
f 102 110 88
f 111 110 102
f 112 111 102
f 104 112 102
f 113 114 97
f 96 113 97
f 114 108 97
f 115 99 100
f 116 115 100
f 101 117 100
f 117 116 100
f 118 107 108
f 119 118 108
f 114 119 108
f 120 117 101
f 109 120 101
f 91 121 92
f 121 94 92
f 103 122 104
f 122 112 104
f 105 121 91
f 122 111 112
f 123 124 114
f 113 123 114
f 124 119 114
f 125 115 116
f 126 125 116
f 117 127 116
f 127 126 116
f 128 118 119
f 129 128 119
f 124 129 119
f 130 127 117
f 120 130 117
f 121 105 94
f 105 93 94
f 103 111 122
f 103 110 111
f 105 96 93
f 106 113 96
f 105 106 96
f 109 103 98
f 99 120 98
f 120 109 98
f 109 110 103
f 107 113 106
f 107 123 113
f 115 130 99
f 130 120 99
f 118 123 107
f 131 124 123
f 118 131 123
f 125 132 115
f 132 130 115
f 128 131 118
f 132 127 130
f 133 134 131
f 134 124 131
f 128 133 131
f 134 135 124
f 135 129 124
f 136 125 126
f 137 136 126
f 127 137 126
f 136 138 125
f 138 132 125
f 129 139 128
f 139 133 128
f 135 139 129
f 132 140 127
f 140 137 127
f 138 140 132
f 133 141 134
f 141 142 134
f 142 135 134
f 143 136 137
f 144 143 137
f 140 144 137
f 145 139 135
f 142 145 135
f 138 146 140
f 146 144 140
f 147 141 133
f 139 147 133
f 143 148 136
f 148 138 136
f 145 147 139
f 148 146 138
f 147 144 141
f 144 146 141
f 146 142 141
f 147 143 144
f 148 145 142
f 146 148 142
f 149 150 147
f 145 149 147
f 150 151 147
f 151 152 147
f 152 143 147
f 153 154 143
f 152 155 143
f 155 153 143
f 156 157 143
f 157 158 143
f 158 148 143
f 154 159 143
f 159 160 143
f 160 156 143
f 151 161 152
f 161 162 152
f 162 155 152
f 159 163 160
f 163 164 160
f 164 156 160
f 150 165 151
f 165 161 151
f 162 166 155
f 166 153 155
f 154 167 159
f 167 168 159
f 168 163 159
f 164 169 156
f 169 157 156
f 149 170 150
f 170 165 150
f 166 171 153
f 171 154 153
f 154 172 167
f 172 173 167
f 173 168 167
f 169 174 157
f 174 158 157
f 145 175 149
f 176 170 149
f 175 176 149
f 177 172 154
f 178 177 154
f 171 179 154
f 179 178 154
f 180 173 172
f 177 180 172
f 181 148 158
f 174 182 158
f 182 181 158
f 145 183 175
f 183 184 175
f 184 176 175
f 185 177 178
f 179 186 178
f 186 185 178
f 185 187 177
f 187 188 177
f 188 180 177
f 189 148 181
f 182 190 181
f 190 189 181
f 145 191 183
f 191 192 183
f 192 184 183
f 145 148 185
f 191 145 185
f 148 187 185
f 186 193 185
f 193 191 185
f 148 194 187
f 194 195 187
f 195 188 187
f 194 148 189
f 190 196 189
f 196 194 189
f 193 192 191
f 196 195 194
f 166 162 161
f 165 193 161
f 179 166 161
f 186 179 161
f 193 186 161
f 169 164 163
f 168 196 163
f 196 169 163
f 184 193 165
f 176 184 165
f 170 176 165
f 188 196 168
f 180 188 168
f 173 180 168
f 179 171 166
f 196 182 169
f 182 174 169
f 192 193 184
f 195 196 188
f 196 190 182

